<svg id="Layer_1" data-name="Layer 1" xmlns="http://www.w3.org/2000/svg" viewBox="0 0 100 100"><title>23</title><path d="M0,16.12v-5c.81-.54,1.82-.47,2.67-.89A13.4,13.4,0,0,0,4,9.58c1.37-.08,2.52-.87,3.83-1.19A14.32,14.32,0,0,1,10.47,8c-3,.12-6,0-9,.17A1.62,1.62,0,0,1,0,7.71V0Q49.46,0,98.89,0C99.8,0,100,.2,100,1.1c0,8.05,0,16.1,0,24.15A13.53,13.53,0,0,1,96.33,25c-2.84-.2-5.66-.4-8.5-.32a3.6,3.6,0,0,1-1.43-.1c-2-.75-4.2-.43-6.29-.76A28.86,28.86,0,0,1,76,23.24a17.24,17.24,0,0,0-5.82-.32,3.35,3.35,0,0,1-2.77-.72A2.94,2.94,0,0,0,64.53,22c-1.73.54-3.36,0-5-.29-2.92-.57-5.79-1.29-8.81-1-1.41.15-2.74-.48-4.12-.63a29.22,29.22,0,0,0-5.11-.52c-.8.06-1.29-.73-2.11-.77-.58,0-1.17-.17-1.78-.17a35,35,0,0,0-6-.47,1.08,1.08,0,0,1-.36,0,4.44,4.44,0,0,0-3.48.26c-1.06,0-2.17.13-3.1-.63a.64.64,0,0,0-.57-.1c-1.91.57-3.78,0-5.67-.09-2.26-.08-4.49-.58-6.79-.36a24.59,24.59,0,0,1-5.19-.35c-.68-.08-1.16-.8-2-.9A11,11,0,0,0,0,16.12Z" transform="translate(0 0)" style="fill:#e1eefc"/><path d="M100,77.63c0,7.17,0,14.34,0,21.51,0,.72-.15.86-.86.86Q50,100,.86,100c-.71,0-.87-.14-.86-.86.05-3.4,0-6.81,0-10.21a4.76,4.76,0,0,1,2.66-.59c5.09-.55,10.15-1.4,15.25-1.82,3.31-.28,6.61-.64,9.92-.91,2.57-.21,5.14-.55,7.71-.83C41,84.19,46.47,83.56,51.94,83a25.07,25.07,0,0,0,2.58-.38c2.88-.44,5.78-.77,8.68-1.06,2.1-.22,4.18-.66,6.27-1a65.11,65.11,0,0,1,12.15-1.15,2.07,2.07,0,0,0,.58-.15c3-.24,6-.78,9.06-.86a3.23,3.23,0,0,0,2.53-.89,1.42,1.42,0,0,1,.84-.43,19.89,19.89,0,0,1,4.43,0A1.63,1.63,0,0,1,100,77.63Z" transform="translate(0 0)" style="fill:#e0eefc"/><path d="M0,66.82V39.43c1.14-.7,2.31,0,3.46,0a8.37,8.37,0,0,1,1,.33,8.6,8.6,0,0,0,4.19.74c3.16.13,6.27.64,9.43.77A53.82,53.82,0,0,1,26,42a14.11,14.11,0,0,0,3.56.25,2.34,2.34,0,0,1,2.83,2.34c.13,1.26-.51,1.85-1.72,1.46a2.06,2.06,0,0,0-1.7,0c-.21.12-.45.17-.65.31s-.15.26-.06.42a.28.28,0,0,0,.3.14.83.83,0,0,0,.22-.08c.56-.26,1.24-.57,1.59.1a1.62,1.62,0,0,1-.53,1.94c-.59.36-.3.51-.16.81a1.9,1.9,0,0,1-.3,2.13c-.64.93,0,1.78.26,2.6a1.58,1.58,0,0,1-.71,1.95c-.43.29-.95.07-.84-.39.19-.86-.46-1.06-.92-1.56-.14,1.43.13,2.82-.27,4.17-.13.47-.18.89-.73.9s-.58-.44-.56-.86a1.8,1.8,0,0,0-.47-1.41c.2,1.05-.27,1.26-1.11,1a1.66,1.66,0,0,0-.82-.1A2.05,2.05,0,0,1,21,57.26c-.4-.51-.82-1.21-1.4,0a1.81,1.81,0,0,1-2.83.21c-.37-.36-.38-.73.07-1a7.14,7.14,0,0,0,1.3-1.09,2.34,2.34,0,0,0-2.27.94c-.28.41-.42.78-.13,1.2a3.39,3.39,0,0,1,.37,2,.9.9,0,0,1-.8,1c-.51.07-1.07-.18-.93.8.06.4-.6.32-1,.09s-.74-.47-.87.07c-.24,1-.94.79-1.6.8a3.79,3.79,0,0,1-1.41-.26c-.7-.28-1.45-.93-2,.25-.11.24-.49.25-.77.25-.66,0-1.42-.38-1.44.87,0,.45-.83.54-1.35.51-1,0-1.48.41-1.58,1.46C2.21,67,1.68,67.29,0,66.82Z" transform="translate(0 0)" style="fill:#dfeefc"/><path d="M100,29.34v16.1c-.79.51-1.65.14-2.45.13-3.69,0-7.4,0-11.08-.29a17.79,17.79,0,0,1-5-.75c-.56-.22-1.25.16-1.89,0a1.13,1.13,0,0,1-.92-.93c-.07-.57-.5-.86-.81-1.24-.89-1.4-1.75-2.83-3.62-3.09a3.38,3.38,0,0,0-2.37-1.49,10.52,10.52,0,0,1-4.06-2A70,70,0,0,0,59.3,29.1,15.39,15.39,0,0,1,55.38,25c.07-.81.69-.78,1.15-.59,1.46.58,3,.58,4.54,1a9.34,9.34,0,0,0,5.37.13,8.19,8.19,0,0,1,3.08-.06c1,0,1.94-.29,2.87.2.21.12.48.21.58.4.33.61.63.89,1.19.2.26-.33.59-.26.93,0a4.16,4.16,0,0,0,4.12,1c.72-.23,1.43-.31,1.9.49A.69.69,0,0,0,82,28a1.61,1.61,0,0,1,1.27.13c.36.24.66.1,1-.12a2.68,2.68,0,0,1,3-.14c.13.07.19.22.36,0,.91-1,2-.6,3.12-.46a.46.46,0,0,1,.19.28c-.19.49-.64.52-1,.59.6-.21,1.25.13,2,.26-.07-.42-.74-.64-.32-1.09a2,2,0,0,1,1.41-.15c.24.05.54.1.65.27.37.64.86.52,1.41.33.22-.08.54-.11.68.05.92,1,2.17.72,3.31.84A1,1,0,0,1,100,29.34Z" transform="translate(0 0)" style="fill:#6d808a"/><path d="M3.63,39.66,0,39.43V20a2.19,2.19,0,0,1,1.86-1,1.67,1.67,0,0,1,.7.12,1.11,1.11,0,0,0,1.47.15,7.15,7.15,0,0,1,1.79,0c2.22.25,4.36,1.05,6.63,1,.44,0,.7-.49,1.17-.38,2.46.25,4.94.27,7.41.37.42,0,.94-.11.81.62-.89.78-2,1.28-2.69,2.33-.32.31-.72.5-1.06.79-1.09.93-2.6,1.24-3.5,2.44-.72,1.06,0,2.49,1.5,2.81.34.07.71,0,1.06.09a.63.63,0,0,1,.54.58c-.12.5-.56,1.07.28,1.37.41.2.87.21,1.26.45a5.14,5.14,0,0,0,2.46.22,3.64,3.64,0,0,1,1.67.17,4.51,4.51,0,0,0,2.25.1c.66-.05,1.32.1,2,.08a1,1,0,0,1,1.11.69c-.14.82-.17,1.66-.35,2.47-.14.65.52,1,.38,1.66-.4,2-1.08,2.77-3.1,3.24a9.88,9.88,0,0,0-1,.26c-1.87.46-3.73,0-5.57-.16-1.62-.14-3.24,0-4.85-.18-2.53.22-5-.84-7.51-.52A5.37,5.37,0,0,1,3.63,39.66Z" transform="translate(0 0)" style="fill:#6b7d87"/><path d="M100,46.4V64.66c-1,.73-1.68-.15-2.33-.57a4.74,4.74,0,0,0-1.73-.68c-.2,0-.48-.11-.58,0-.82,1.26-1.38.45-2-.21a1.11,1.11,0,0,0-1-.23A13.12,13.12,0,0,1,89,62.69c-1.91-.33-3.91-.83-5.89-.36-.93.23-1.51-.33-2.17-.73a.79.79,0,0,1-.27-1.06,2,2,0,0,0,.17-1.16c.15-.75,1-1.25.89-2-.2-1.57,0-3.16-.15-4.7A26.14,26.14,0,0,0,79.76,47c-.15-.4-.46-.76-.28-1.23a1.9,1.9,0,0,1,1.79-.42c2.91.28,5.83.26,8.74.39s5.74.39,8.63.28A1.74,1.74,0,0,1,100,46.4Z" transform="translate(0 0)" style="fill:#dfecfc"/><path d="M0,66.82c1.49.06,2.23-.53,2.1-2.15-.09-1.15.94-1.05,1.66-1.05.55,0,1.11,0,1.42-.39s-.44-.68-.46-1.22c1.06-.3,3.09,1.51,3-1.48,1.14,1.38,2.59,1.4,4,1.55.39,0,.4-.15.33-.41a.77.77,0,0,1,.51-1c.39-.16.66.13.89.42s.38.52.67.23-.07-.48-.25-.65-.52-.3-.34-.65a.36.36,0,0,1,.53-.09c.53.35,1.23.7,1.56.06a2.75,2.75,0,0,0-.06-2c-.15-.47-1-.82-.39-1.42s1.12-1.89,2.48-1.46l.23.07c.39.08,1-.46,1.14.1s-.79.17-.84.38c-.19.78-.82.88-1.39,1.12-.07,0-.14.24-.1.29a1,1,0,0,0,.33.27c.64-.73.66,1.22,1.37.32.34-.43,1.39-.3,1-1.34-.08-.2.29-.34.55-.28s.45.1.53.24c.84,1.43,2.22,1.63,3.68,1.71.22,0,.46.24.66,0s-.05-.44-.12-.66-.51-.42-.17-.71.57.09.78.3a1.75,1.75,0,0,1,.58,1.73c0,.22-.24.47.09.61a.45.45,0,0,0,.34,0c.25-.13.37-.37.18-.59-.4-.46-.18-.78.16-1.12a.8.8,0,0,0,.17-.9c-.4-1,0-2,.11-3.18.53.62.65,1.39,1.5,1.51.36.05.2.5-.11.73a.33.33,0,0,0-.06.52c.26.27.45,0,.59-.15a1.32,1.32,0,0,0,.34-1.64c-.3-.77-1.1-1.81-.14-2.76,1.71.5,2,1.6,1.39,3.14-.22.56.43,1,.29,1.6a8.28,8.28,0,0,1-.26,1.2,4.22,4.22,0,0,1-.56.9,2.43,2.43,0,0,1-.85.6c-.07,0-.18,0-.22.1-1.17,1.56-3.06,1.78-4.68,2.52a3.7,3.7,0,0,1-.78.3c-.46.12-1,.36-1.23-.28a.88.88,0,0,1,.59-1.24.88.88,0,0,0,.5-.31c-1-.75-2.84-.79-3.24.25A6.22,6.22,0,0,1,18.28,63c-.1.08,0,.31-.06.46-.21,1.13-.85,1.61-2,1.31a1.15,1.15,0,0,0-1.57.65c.14.11.32,0,.48,0,.58.07,1.38,0,1.49.69s-.67.76-1.21.86a1.51,1.51,0,0,0-1,.64c-.36.49-1,.41-1.41.63a5,5,0,0,1-3.37.27c-.22,0-.51.19-.79.29.16.32.57.45.63.83s-.14.87-.53.72C8,69.9,6.54,70.31,5.84,69c.56,1.1.65,1.15,1.73,1.07a1.35,1.35,0,0,1,.92.11c.8.48,1.58.81,2.28-.21.21-.3.54-.24.84,0a2.19,2.19,0,0,0,2.73.25,3.14,3.14,0,0,1,3.31,0,11.4,11.4,0,0,0,4.08.75,2.32,2.32,0,0,1,1.65.84c.21.25.42.53.26.87s-.52.34-.84.28a19.33,19.33,0,0,0-2.15,0c-.92-.07-1.6.66-2.42,1a1.27,1.27,0,0,1-.72-.06,1.39,1.39,0,0,0-1.43-.28,8.64,8.64,0,0,1-3.2.23c-.73-.06-1.28.51-2,.45-1.43-.13-2.83.16-4.25.17l-.36.07A8.94,8.94,0,0,0,3.05,75c-1,.41-2-.05-3-.05Z" transform="translate(0 0)" style="fill:#d8e6f3"/><path d="M54.59,82.93c-3.89.68-7.82,1-11.73,1.47-2.42.28-4.84.47-7.26.7a3.54,3.54,0,0,1-2.44-.19,1.52,1.52,0,0,0-1.59,0,1.69,1.69,0,0,1-1.82.11c-.22-.14-.44-.22-.65,0a1.65,1.65,0,0,1-2.1.13c-1.28-.6-2.6-.17-3.89-.09a9.75,9.75,0,0,1-2.75,0,9.41,9.41,0,0,0-4.33.37c-1.36.34-2.81.11-4.09.75a.36.36,0,0,1-.35,0,3.86,3.86,0,0,0-3.33-.48c-1.39.23-2.7.71-4.09.08a.52.52,0,0,0-.46.09c-1.25,1-2.47.25-3.69-.07V82.68C1.17,82.63,2.2,82,3.35,82a1.44,1.44,0,0,0,.89-.33,1.55,1.55,0,0,1,1.57-.31c.67.24,1.22-.24,1.85-.31a24.09,24.09,0,0,1,5.5.05c1.08.15,2.28.47,3.13-.7.16-.23.6-.14.92-.16a29.81,29.81,0,0,1,4.91,0,1.87,1.87,0,0,0,.92-.25c.29-.13.61-.35.91-.25,1.33.45,1.92-.15,2.17-1.38.07-.35.43-.43.76-.49a13.51,13.51,0,0,0,1.52-.38,90.68,90.68,0,0,1,11.76-.73c1.43,0,2.86-.12,4.29,0a17.39,17.39,0,0,1,3.67-.25c1.45,0,2.93-.26,4.26.6.32.38.79.31,1.21.36s1,0,1.29.45A1.31,1.31,0,0,1,53.12,79a5.87,5.87,0,0,0-1.83.06,5.17,5.17,0,0,1-2.55-.2,2.63,2.63,0,0,0-2.41.07,4.48,4.48,0,0,1-3.24.54,1.31,1.31,0,0,0-1,.16,2.64,2.64,0,0,1-2.41.22c-.43-.17-.76-.12-.88.45s-.61.63-1.12.42a5.21,5.21,0,0,1-.84-.45c-.51-.33-1.09-.19-1.62-.3-.73-.17-.93.26-1.28.72s-1,.28-1.59.23c-1.5-.15-2.85.4-4.42.65.54.51.87.33,1.18,0s.5-.44.74-.27c1.14.81,2.47.3,3.69.55.9.19,1.89-.48,2.75.29.14.12.28-.08.34-.23s.29-.47.53-.39c1.19.39,2.49-.28,3.65.41a3,3,0,0,0,2.11.2C44,82,45,82.08,46.09,81.88a4.38,4.38,0,0,1,2.48.15,2.34,2.34,0,0,0,1.41,0,1.19,1.19,0,0,1,1.45.56c0,.15.23,0,.08,0s0,0,0-.07c-.22-.58.18-.84.59-1a3.06,3.06,0,0,1,2.44.26C55,82.09,54.93,82.54,54.59,82.93Z" transform="translate(0 0)" style="fill:#5f7179"/><path d="M37.75,18.29c1.12.09,2.31-.07,3.23.83a.57.57,0,0,0,.46.11c1.87-.36,3.65.41,5.49.46,1.08,0,2.2.81,3.33.61,1.45-.27,2.86.19,4.29,0a2.29,2.29,0,0,1,.94,0c1.42.4,2.88,1.17,4.28,1.07,1.56-.11,2.93.9,4.64.23.92-.36,2.71-1,3.73.73.39.64,1.34.25,2,.22a16.9,16.9,0,0,1,7,.63,5.83,5.83,0,0,0,2.16.25,6.62,6.62,0,0,1,2.1.15c1.14.32,2.34-.14,3.41.25,2.52.9,5.12.31,7.67.56a51.8,51.8,0,0,0,5.28.34,9.4,9.4,0,0,1,2.2.51v1.44c-.52.46-1.08,0-1.61.07a64.08,64.08,0,0,1-11.49-.84,15.14,15.14,0,0,0-3.81-.12,15.43,15.43,0,0,1-2.22-.26,16,16,0,0,1-4.13-.39c-1.81-.57-3.72-.15-5.58-.42a14.45,14.45,0,0,0-3.77-.36c-1.4-.34-2.83,0-4.24-.23-2.94-.44-5.9-.68-8.85-1.06-1.57-.2-3.17-.21-4.72-.56a2.32,2.32,0,0,1-.38-.05c-3.57-1.06-7.11-2.21-10.61-3.49C38.23,18.85,37.74,18.85,37.75,18.29Z" transform="translate(0 0)" style="fill:#cfdfee"/><path d="M81,59.38c.07.29.55.48.32.83s-.8.55-.44.95,1.2,1.07,1.5.93c.77-.36,1.48,0,2.19-.18a2.69,2.69,0,0,1,2.31.22,1.45,1.45,0,0,0,.93.11,2.51,2.51,0,0,1,2.16.44c.63.53,1.53.06,2.26,0s1.38,0,1.74.8c.12.26.3.53.63.43s.09-.35,0-.54.07-.27.22-.33a4.25,4.25,0,0,1,3,.89s0,.1,0,.1c.79-.05,1.29.81,2.11.67v5a3.22,3.22,0,0,1-2.67.26c-1.57-.3-3.19-.17-4.74-.61a1.31,1.31,0,0,0-.59,0,2.46,2.46,0,0,1-3.21-2c-.16-.61-.39-.9-1-.94a1.6,1.6,0,0,1-.88-.36,5.4,5.4,0,0,0-3.71-.94,4.56,4.56,0,0,1-3.81-2.9c-.15-.62.28-1.07.35-1.61.22-.52.34-1.09.94-1.34A.37.37,0,0,1,81,59.38Z" transform="translate(0 0)" style="fill:#d2dfed"/><path d="M44.45,77.09c-2.32,0-4.64.06-7,.18-3.12.17-6.24.41-9.36.63a16.29,16.29,0,0,0-2.78.46,2.65,2.65,0,0,1-1.34,0c-1-.92-1.79-.62-2.55.28a9.6,9.6,0,0,1-4.36.22,6.24,6.24,0,0,0-1.78,0,49,49,0,0,1-6.84.56H8.07c-2.18,0-4.29.7-6.48.52A2.35,2.35,0,0,1,0,79.56v-.72c.33-.46.4-1.1,1-1.35a.89.89,0,0,1,.51,0c1.29.74,2.66.09,4,.19.51,0-.39-.53.13-.69a2.87,2.87,0,0,1,2.16-.31A1.64,1.64,0,0,0,9.13,77c.49-.1,1.12,0,1.3.55s-.42.68-.64.86c1.08-.15,1.84-1.49,3.22-1.21a.44.44,0,0,0,.42-.2c.68-.81,1.44-.59,2.37-.39a4.58,4.58,0,0,0,3.08-.44,7.63,7.63,0,0,1,3.65-.39c2.62.13,5.13-.51,7.69-.74a40.73,40.73,0,0,1,6,0c2.43.13,4.86.22,7.28.11a19,19,0,0,1,2.49.19.78.78,0,0,1,.78.88c0,.48-.47.42-.83.48S44.84,76.64,44.45,77.09Z" transform="translate(0 0)" style="fill:#93a3ad"/><path d="M100,77.63a27.63,27.63,0,0,0-4.63-.29c-.66,0-1.29.06-1.54.82a.54.54,0,0,1-.5.42c-1.62.12-3.23.24-4.85.39-1.21.12-2.43.24-3.64.43a14.41,14.41,0,0,1-2.62.16c-.27,0-.6,0-.7-.27s.29-.49.45-.73c-.07-.73-.23-1.51-.23-2.15a2.31,2.31,0,0,1,1.88-2,20.48,20.48,0,0,1,5-.5,2.24,2.24,0,0,1,1.49.34c.91.8,1,.79,1.78-.4a1.73,1.73,0,0,1,.86-.36A29.08,29.08,0,0,1,97,73.7c-.41-.4-.41-.54.06-.65a3.68,3.68,0,0,1,2.91.74Z" transform="translate(0 0)" style="fill:#677881"/><path d="M0,85.8c.66-.19,1.3-.42,1.86.26.24.28.5.19.82-.06a2.11,2.11,0,0,1,2.81-.23.94.94,0,0,0,1.11.14,4.4,4.4,0,0,1,4.9-.06c.13.08.37.18.43.13,1.24-1.13,2.91-.51,4.35-1a6.79,6.79,0,0,1,4.24-.25,6.18,6.18,0,0,0,2.6,0c1.49-.17,3-.61,4.48.32.55.36,1.13.28,1.31-.43s.42-.58.7-.13a1.08,1.08,0,0,0,1.75.19,1.25,1.25,0,0,1,1.88-.13c.75.65,1.55.45,2.34.55-1.82.21-3.63.45-5.45.64-7.82.83-15.66,1.46-23.45,2.54A55.52,55.52,0,0,1,0,88.93Z" transform="translate(0 0)" style="fill:#687c87"/><path d="M0,79.56c2.75.3,5.44-.55,8.18-.45a1.33,1.33,0,0,0,.41.41c-.11-.14-.27-.23-.17-.42,1.85.19,3.65-.65,5.51-.26.59.12.92-.47,1.55-.45,2,.06,4.1.54,6.14,0a2.13,2.13,0,0,1,1.87-.23c.58.17,1.16,1.35,1.73,0,.93-.5,1.93-.13,2.89-.21a1.69,1.69,0,0,1-1.11.35c-.51.06-.8,0-.67.73s-1.15,1.53-1.89,1.17c-.42-.2-.76,0-1.14.12-.6.2-1.15,1-1.87.14-.14-.18-.41.12-.58.28a.52.52,0,0,1-.83,0,.88.88,0,0,0-1.42-.06c-.46.39-1.22-.33-1.87,0-.11.06-.37-.07-.44,0a2.7,2.7,0,0,1-2.66.84,19.82,19.82,0,0,0-6.29-.08c-.73.12-1.36.7-2.14.1-.18-.13-.43.13-.61.29s-.38.48-.53.46c-1.4-.23-2.63,1.12-4.06.4Z" transform="translate(0 0)" style="fill:#667982"/><path d="M0,16.12c.62-.61,1.22-1.23,2.19-.53a.46.46,0,0,0,.68-.29c.06-.16.28-.34.31-.27.63,1.32,2.54-.16,3.06,1.4.1.3.42.31.73.2a2,2,0,0,1,.8-.17,21.51,21.51,0,0,0,5,.39,7.9,7.9,0,0,1,3.4.32c.57.21,1.35-.2,2-.05a15.19,15.19,0,0,0,4.34.44c1.25-.07,2.46-.5,3.62.44.32.25,1,0,1.53,0,0,.6-.49.53-.82.65a9.22,9.22,0,0,0-1.67.59,4.27,4.27,0,0,1-1.25.51c-3.42-.12-6.84-.38-10.27-.49-1.85-.06-3.7-.23-5.55-.27s-3.62-.48-5.45-.51C1.75,18.5.79,18.76,0,18Z" transform="translate(0 0)" style="fill:#cddceb"/><path d="M43.5,75.46c-2.73.1-5.46-.16-8.18-.13-2.39,0-4.8-.21-7.24.46a14,14,0,0,1-5.28.33,11,11,0,0,0-4,.32c-1.36,0-2.74,0-4.06.12-1.48.07-3,.32-4.53.46A7.92,7.92,0,0,1,8,76.92a17.56,17.56,0,0,0-2.4.23,10.13,10.13,0,0,1-4.09.49H1c-.5.19-.69-.24-1-.49v-.72a1.11,1.11,0,0,1,1.09-.29,25.38,25.38,0,0,0,6.15-.42c.23,0,.46-.23.69-.19,2.35.47,4.63-.5,7-.34a10.2,10.2,0,0,0,2.34-.42,3.69,3.69,0,0,1,1.55,0,4.71,4.71,0,0,0,3.23-.48,17,17,0,0,1,2.85-.1A6.37,6.37,0,0,0,28.17,74c.9-.12,1.82-.15,2.72-.32s1.84.28,2.78.34c2.36.14,4.72.24,7.09.25a6.66,6.66,0,0,0,2.81,0c.7-.13,1.51-.39,2,.5-.13.62-.61.51-1,.44A1.06,1.06,0,0,0,43.5,75.46Z" transform="translate(0 0)" style="fill:#a6b4be"/><path d="M80,60.55c.21.67-.71,1.13-.18,2a4.88,4.88,0,0,0,3.81,2.11c1,.12,2.29-.2,3.09.82a1.59,1.59,0,0,0,1.48.63c.69-.07,1,.1.86,1a2,2,0,0,0,1.09,1.84c.53.33,1.32.76,1.9-.1.1-.14.19-.18.39-.1,2.42,1,5,.91,7.52,1v1.93a.8.8,0,0,1-.76.49c-1.92-.25-3.93.21-5.74-.77-.87-.48-1.91-.19-2.79-.62a12,12,0,0,0-1.45-.55A1.22,1.22,0,0,1,89,70a2.84,2.84,0,0,0-1.78-.86c-.5-.09-1-.28-.39-.91.3-.29.12-.56-.14-.67-1.49-.64-2.8-1.62-4.32-2.17a5.59,5.59,0,0,1-2-.76,2.56,2.56,0,0,1-1.22-3.06C79.17,61.08,79.37,60.58,80,60.55Z" transform="translate(0 0)" style="fill:#c7d5e3"/><path d="M93.25,27.66H91.57a.52.52,0,0,1-.73,0h0a3.63,3.63,0,0,0-1.76-.12,36.15,36.15,0,0,1-8.55-.88,2.39,2.39,0,0,0-.59-.08c-2.56.13-5.06-.53-7.6-.6-.91-.61-1.94.1-2.87-.26a50.86,50.86,0,0,0-9.06-.6c-.9,0-1.74,0-2-1.14A3.39,3.39,0,0,1,61,23.83a17,17,0,0,0,4,.33c1.51,0,3,.37,4.5.33,1.15.5,2.37.1,3.55.17,2,.12,3.93.62,5.92.69,3.49.11,7,.54,10.44.72.78,0,1.45.43,2.21.5a21.25,21.25,0,0,0,4.85,0,11.88,11.88,0,0,1,3.54.33v1.21a3.42,3.42,0,0,1-2.64.16C96,28.1,94.55,28.23,93.25,27.66Z" transform="translate(0 0)" style="fill:#9fabb9"/><path d="M100,73.79c-1.09.28-2-1-3.08-.35.2.3.79-.09,1,.5-2,0-4.06-.31-6,.12l-.16,0c-.33-.15-.72-.19-1-.54-.66-.74-1.58-.43-2.39-.58-.19,0-.41.13-.59.08-2.05-.58-4.12-1-6.21-1.48-.72-.15-.59-.92-.39-1.52a3.41,3.41,0,0,1,.29-.61c.31-.68-.17-1.56.54-2.15a1.67,1.67,0,0,1,1.37,1.17c.11,1.6,1.3,1.94,2.54,2.22a54.8,54.8,0,0,0,14,1.42s.06,0,.1.07Z" transform="translate(0 0)" style="fill:#9ca8b1"/><path d="M100,46.4q-6,0-12-.4c-2.36-.16-4.75,0-7.12-.29-.42,0-1.08-.36-1.28.43l-.16.09a.69.69,0,0,1-.32-.16,2.16,2.16,0,0,1-.25-1.88.46.46,0,0,1,.5,0,6.09,6.09,0,0,0,1.9-.15c.31-.1.74-.3.93.36s.6-.11,1,0a39.67,39.67,0,0,0,7.47.64c3.12.12,6.26-.13,9.36.38Z" transform="translate(0 0)" style="fill:#94abbb"/><path d="M100,72.11a4.89,4.89,0,0,1-3.27.08,1,1,0,0,0-.59,0,8.77,8.77,0,0,1-3.23,0c-2.47-.3-4.9-.79-7.33-1.24a12.34,12.34,0,0,1-1.87-.74.8.8,0,0,1-.52-1,2,2,0,0,0-.5-1.43A1.79,1.79,0,0,1,82.48,66c.22-.34.46-.22.69,0A3,3,0,0,1,84,67.15c.67,1.85,2.21,2.25,3.89,2.43a2.46,2.46,0,0,1,1.24.37h0a2,2,0,0,0,1.45.47c1.92.12,3.66,1.1,5.54,1.25a11.46,11.46,0,0,0,3.83,0Z" transform="translate(0 0)" style="fill:#b8c0c9"/><path d="M21.89,74.52a2.78,2.78,0,0,1-2.53.64,6.83,6.83,0,0,0-2.47,0,23.46,23.46,0,0,1-5.79.5c-.71,0-1.2.67-1.93.49-1.9-.45-3.71.39-5.56.38-.87,0-1.82.54-2.66-.14-.29-.24-.62,0-.93,0v-.72A7.68,7.68,0,0,1,3.28,75a56.13,56.13,0,0,0,5.82-.34c3.16-.34,6.35,0,9.5-.55a5,5,0,0,1,3-.08C21.8,74.13,22,74.26,21.89,74.52Z" transform="translate(0 0)" style="fill:#b9c6d0"/><path d="M100,26.93c-3-.14-5.91.38-8.85,0-.91-.13-1.7-.82-2.74-.68-2.36.33-4.62-.68-7-.58a48.58,48.58,0,0,1-8.85-.83,4.75,4.75,0,0,0-1,.11,2.93,2.93,0,0,1-2.08-.15,12.73,12.73,0,0,0-1.62-.27c-.24-.05-.61,0-.54-.45,3.49.37,7,.27,10.48,1a25.43,25.43,0,0,0,3,.24c2.84.2,5.7.19,8.53.64a31.88,31.88,0,0,0,5.91.56,18.62,18.62,0,0,1,4.72.24Z" transform="translate(0 0)" style="fill:#b9c4d3"/><path d="M0,7.71c2.66-.09,5.33.14,8-.11A12.1,12.1,0,0,1,11.66,8c-2.65.22-5,1.42-7.55,1.92C3,9.9,2,9.56.88,9.67A1,1,0,0,1,0,9.39Z" transform="translate(0 0)" style="fill:#c6d5e3"/><path d="M0,18c2.11.27,4.25.36,6.36.54s4.46.33,6.71.3c3.21-.05,6.43.34,9.64.54l1.32.06c-.08.69-.68.62-1.12.78-3.29-.2-6.59-.16-9.87-.61-1.78-.24-3.59.11-5.37-.17s-3.8-.09-5.68-.41c-.68,0-1.41.33-2-.31Z" transform="translate(0 0)" style="fill:#b6becb"/><path d="M93.25,27.66l6.73.48v1.2c-.63-.52-1.35,0-2.06-.18s-1.8.2-2.23-.93a.4.4,0,0,0-.33,0C94.47,28.73,93.83,28.32,93.25,27.66Z" transform="translate(0 0)" style="fill:#808e9a"/><path d="M0,9.39c1.26-.33,2.5.16,3.75.06.25,0,.3.22.34.42A7.26,7.26,0,0,1,0,11.08Z" transform="translate(0 0)" style="fill:#acbfcb"/><path d="M3.15,75.23c-1.12-.34-2,.82-3.13.48V75c.56-.25,1.07-.72,1.74-.14.38.33.9,0,1.24-.14a7.94,7.94,0,0,1,3.51-.44c0,.57-.48.53-.84.59C4.83,75,4,75,3.15,75.23Z" transform="translate(0 0)" style="fill:#d2e2ee"/><path d="M0,18.76,1.94,19a.14.14,0,0,1,.06.16c0,.05,0,.08-.05.08C1.1,18.94.78,20,0,20Z" transform="translate(0 0)" style="fill:#86949e"/><path d="M0,77.15c.42,0,.64.34,1,.49a2.21,2.21,0,0,1-1,1.2Z" transform="translate(0 0)" style="fill:#a0b1bc"/><path d="M25,19c.79-.6,1.85-.42,2.66-.95.12,0,.27,0,.35,0,1.54-1.14,3.18,0,4.76-.18a16.17,16.17,0,0,1,5,.45c3,1,5.94,2.3,9.07,3a18.19,18.19,0,0,1,2.44.87c.07.36-.21.49-.44.66a.84.84,0,0,1-.69.09A24.76,24.76,0,0,0,38,21.31a8.38,8.38,0,0,1-5.6-2.38c-.37-.31-.67-.62-1.06-.07s-.74.66-1.13,0a.87.87,0,0,0-1.32-.31A3.37,3.37,0,0,1,25,19Z" transform="translate(0 0)" style="fill:#c0b89e"/><path d="M82.19,78.6c0,.32-.86.65,0,1a38.49,38.49,0,0,1-5.35.45c-3.55.23-7,.94-10.54,1.46-3.66.53-7.33,1-11,1.36-.23,0-.47.07-.7.1-.27-.93-.35-1-1.69-1.17a1.24,1.24,0,0,0-1.2.38c-.37.5.41.56.47.93-.07,0-.16.09-.21.07a12.59,12.59,0,0,0-7-.77,30.92,30.92,0,0,1-3.2.29,2,2,0,0,1-1-.27,2.36,2.36,0,0,0-2.17-.28,1.09,1.09,0,0,1-.93-.07c-.54-.26-1-.51-.76.53.11.41-.22.65-.56.26A1.65,1.65,0,0,0,34,82.4c-.16.09-.46,0-.69-.08s-.3-.29-.37-.26a3.37,3.37,0,0,1-3.32-.46c-.18-.12-.29.18-.37.37a.65.65,0,0,1-.87.42c-.43-.14-1.08-.2-1.09-.74s.61-.44,1-.48c1.62-.22,3.19-.9,4.87-.53.24.06.48.17.64-.1s-.32-1.17.34-1c.92.23,1.9-.18,2.75.39a8.18,8.18,0,0,0,.7.43c.64.34.57.32.69-.36a.8.8,0,0,1,1.29-.53A2,2,0,0,0,42,79.27a.92.92,0,0,1,1-.18,3,3,0,0,0,2.86-.28c1.15-.55,2.2-.93,3.3,0,.2.17.34,0,.53-.06s.86-1.54,1,.14c0,.29.48,0,.68-.15s.72-.61,1.05-.34c.95.72,1.65.22,2.38-.32,1-.91,2.16-.36,3.2-.26,1.37.14,2.71,0,4,0,2.49,0,5-.44,7.45.23.57.15.87-.42,1.43-.45,1,0,2,0,3,0,1.93.1,3.79-.6,5.73-.35A3.29,3.29,0,0,1,82.19,78.6Z" transform="translate(0 0)" style="fill:#5c6d74"/><path d="M28.61,45.92a1.89,1.89,0,0,1,2.11-.19c1,.45,1.43.06,1.35-1a2.09,2.09,0,0,0-2.31-2.12c-2,.27-3.76-.3-5.63-.51a41.34,41.34,0,0,0-6.09-.5c-.1-.58.27-.78.72-.91a1.21,1.21,0,0,1,.38,0,13.7,13.7,0,0,0,2.22.1,2.6,2.6,0,0,1,.56.07,6.4,6.4,0,0,0,2.82.13,32.34,32.34,0,0,1,7.67.65,1.14,1.14,0,0,1,.64.94c.09,2.09.61,4.17,0,6.25a2,2,0,0,1-.5.93.38.38,0,0,1-.61-.29c0-.64-.5-1.12-.53-1.75a2.79,2.79,0,0,0-1.93-1.21C29.11,46.42,28.59,46.54,28.61,45.92Z" transform="translate(0 0)" style="fill:#cee1ef"/><path d="M28.61,45.92c.85.27,1.68.56,2.53.8.5.13.51.51.6.88a3.75,3.75,0,0,0-.84,2.14c.06.76.08,1.52,1.19,1.3a16.39,16.39,0,0,1-1,5.09c-.09.22-.24.43-.54.34a4.16,4.16,0,0,1-.07-3.3c.13-.43,0-.87-.57-.66-.9.29-.79-.31-.81-.83a1.55,1.55,0,0,0-.15-2.38c-.26-.25-.74-.4-.43-.78s.5.19.75.31l.45.2c-.17-.8,1-1.45.21-2.06-.5-.41-1.17.12-1.51.82-.6-.44-.5-1.19-1-1.64C27.85,45.9,28.3,46.24,28.61,45.92Z" transform="translate(0 0)" style="fill:#d0e3f0"/><path d="M18.8,40.85a1.61,1.61,0,0,0-.76.74c-3.8-.35-7.61-.68-11.41-1.05-.79-.08-1.7.21-2.29-.62a20.64,20.64,0,0,1,7.75.27c1,.23,2-.13,3.07,0a3,3,0,0,1,.43,0c1,.45,2.1-.21,3.08.31A.3.3,0,0,1,18.8,40.85Z" transform="translate(0 0)" style="fill:#cae0f2"/><path d="M15.41,40.41,4.34,39.92c-.26,0-.54,0-.71-.26a49.54,49.54,0,0,1,6.09-.25c.44,0,1-.15,1.29.07,1,.79,2.11.47,3.19.43C14.51,40.31,15.27,39.6,15.41,40.41Z" transform="translate(0 0)" style="fill:#8cabb9"/><path d="M48.8,22.61l.46-.44.26,0a5.61,5.61,0,0,0,3.12.84,1.87,1.87,0,0,1,1.45.32c.15.86,1.07,1,1.45,1.69a28.87,28.87,0,0,1,3.12,3.23c.88,1.14,2.31,1.67,3.5,2.45a40.05,40.05,0,0,1,5.65,4.9c-.39.35-.75.1-1.1-.07a7.85,7.85,0,0,1-2.78-2,7.1,7.1,0,0,0-2.45-1.84c-.88-.1-1.83.12-2.57-.56-.08-.69-.77-.26-1-.58.27-.8-.6-1.16-.89-1.38a3.41,3.41,0,0,0-2.4-.88c-.59.13-1.17.26-1.77.34a1.85,1.85,0,0,1-.8-.13c-.58-.17.74-.45-.12-.75-.65-.24.33-.7.32-1.13-.71-1.13-1.05-2.57-2.64-2.89C49,23.57,48.63,23.27,48.8,22.61Z" transform="translate(0 0)" style="fill:#b3b1a5"/><path d="M61.76,31.27c1.89,1.05,3,3.09,5.07,3.94a2.33,2.33,0,0,0,1,.36c.12,0,.29,0,.35,0,1.31,1.34,3.14,1.51,4.76,2.14.63.25,1.38.49,1.37,1.41,1.88.2,2.42,1.84,3.34,3.08a1.1,1.1,0,0,1,.12,1.2c-.52.34-.81-.11-1.13-.35a4.78,4.78,0,0,1-1.29-1.24c-1.09-1.88-3.18-2.16-4.84-3.09a4.81,4.81,0,0,0-2.25-.49,6.53,6.53,0,0,1-4-1.87c-.37-.13-1,.14-.93-.65a.79.79,0,0,1,.54-.17c-.17-.11-.29-.31-.41-.39-.29-.19-.66,0-1,0a1.29,1.29,0,0,1-.93-.43c-.53-1,.94-1.15.79-2a5.12,5.12,0,0,0-1.5.23c-.4.06-.8.29-1.2,0-.23-.62.28-.72.65-.9A4.49,4.49,0,0,0,61.76,31.27Z" transform="translate(0 0)" style="fill:#b8b19b"/><path d="M72.34,26c2,.05,4-.5,5.89.42.59.28,1.17-.41,2-.23a53.51,53.51,0,0,0,10.25,1.27,1.1,1.1,0,0,1,.41.22c-.71,0-1.43,0-2.15,0-.38,0-.79-.05-.83.58s-.54.43-.8.22a2,2,0,0,0-2.86,0c-.4.38-.65.68-1.06,0s-.87-.2-1.29-.07-.75.21-1-.24a1.25,1.25,0,0,0-2.12-.31c-.38.37-.43.32-.77,0-.53-.48-1.33-.26-2-.62-.44-.25-1.3.29-1.1-.87,0-.23-.47-.17-.5.07-.11.76-.62.69-1.15.68-.87,0-.15-.56-.29-.79S72.53,26.11,72.34,26Z" transform="translate(0 0)" style="fill:#8395a1"/><path d="M55.54,25c-.48-.25-1-.49-1.44-.76s-.26-.44,0-.67a5,5,0,0,1,4.32.49c1.27,1.35,2.93.3,4.36.71s2.66,0,4,.21a6.17,6.17,0,0,1,2.71.75c-.79.31-1.57-.3-2.38,0-.28.1-.64,0-.88.28s-.61.5-1,.09c-.09-.09-.39-.15-.44-.1-.87,1-1.81-.42-2.72.09-.23.13-.71-.08-1-.25-1.47-.81-3.22-.46-4.69-1.22C56,24.45,55.62,24.46,55.54,25Z" transform="translate(0 0)" style="fill:#82939e"/><path d="M90.84,27.66h.73c.25.57.9.57,1.59,1.05-1.72.39-3.11-.37-4.56-.24C89.29,27.94,90.24,28.29,90.84,27.66Z" transform="translate(0 0)" style="fill:#8395a1"/><path d="M77.39,42.31a16,16,0,0,1-1.11-1.49,3.71,3.71,0,0,0-2-1.65c1.47,0,3.55,1.86,3.59,3.13l-.1.11A.36.36,0,0,1,77.39,42.31Z" transform="translate(0 0)" style="fill:#8d9794"/><path d="M79.31,44.22l-.47,0c-1.37-.11-.86-1.18-1-1.93l0,0c.63.2,1.14.47,1,1.29C78.81,43.92,79.18,44,79.31,44.22Z" transform="translate(0 0)" style="fill:#8d9794"/><path d="M30.54,56.47a7.35,7.35,0,0,0,.8-2.65c.16-1,.39-1.9.59-2.85a.93.93,0,0,1,.28-1.22,3.41,3.41,0,0,0,.68-2,20.82,20.82,0,0,0-.42-5.94c-.52-.71.1-1.54-.23-2.27-.24-1.79.36-3.47.65-5.19a1,1,0,0,0-.77-1.17,15.55,15.55,0,0,0-6.39-.74,2.69,2.69,0,0,1-2.14,0c-1.17-.57-2.48,0-3.71-.26-.3-.07-.65,0-.87-.27a.73.73,0,0,1,.44-.27,66.29,66.29,0,0,1,8.21-.64,21.33,21.33,0,0,1,3.1.18c1.67.2,2.14-.11,2.54-1.7.1-.39.18-.86.63-.93s.53.49.74.8A2.7,2.7,0,0,1,35,31.59c-.12.52-.28,1.12.33,1.51.15,1.09-.46,2.14-.13,3.24a7.84,7.84,0,0,0-.62,4.32c0,1.25-.2,2.46-.21,3.7a8.27,8.27,0,0,0,.09,2.38,1.08,1.08,0,0,1-.07.81c-.27.57-.61,1,0,1.74.37.46,0,1.59-.38,2.37a12.56,12.56,0,0,0-1.65,4.19c-.16,1.22-.32,2.42-.55,3.63s-1.16,2.05-1.81,3c-.06.08-.22,0-.32-.08a.89.89,0,0,1-.16-.34,12,12,0,0,1,.78-4.39C30.39,57.29,30.19,56.83,30.54,56.47Z" transform="translate(0 0)" style="fill:#adada0"/><path d="M33.19,34.39a39,39,0,0,0-.74,5.28c.32.85-.17,1.32-.87,1.26-2.06-.15-4.12,0-6.17-.22-.3,0-.64-.12-.65-.55,1-.3,2.16,0,2.86-1.12s.42-1.72.37-3c0-.93-.27-2.22.62-3.11.18-.6.65-.77,1.1-.47a11.33,11.33,0,0,0,3,1.32C33,33.87,33.28,34,33.19,34.39Z" transform="translate(0 0)" style="fill:#788c97"/><path d="M19,23.11a4.08,4.08,0,0,1,2.61-2.19c.42-.18.63-.76,1.21-.66,1.24.84,2.44.12,3.66-.09a7.42,7.42,0,0,0,.34,2.63c.22.43-.19.92-.47,1.29-1,1.31-.67,2.42.4,3.74.28.34.65.6.76,1.05a.6.6,0,0,1-.51.59,4.08,4.08,0,0,1-5-4.71,1.6,1.6,0,0,0-.08-1.16c-.59-.31-.42-1.47-1.45-1.28a1.53,1.53,0,0,0-.38.46,1.08,1.08,0,0,1-.46.46A.58.58,0,0,1,19,23.11Z" transform="translate(0 0)" style="fill:#93917f"/><path d="M19,23.11l.71,0c.19,0,.46.12.55,0s-.28-.28-.32-.5l.25-.45c.73-.31,1.07,0,1.23.71a6,6,0,0,1,0,2.24,4.2,4.2,0,0,0,.68,3.59,1,1,0,0,1,.09,1.12,4.9,4.9,0,0,1-2.27,1.95c-.14.1-.3.15-.43.25H19c-.3-.44-.9,0-1.21-.44.27-.41.77-.35,1.14-.55a1.57,1.57,0,0,0,.6-2.56c-.42-.26-1-.26-1.33-.67-1.54-.9-1.59-2.09-.17-4C18.09,23.19,18.7,23.37,19,23.11Z" transform="translate(0 0)" style="fill:#616256"/><path d="M24.76,40.16c.65.46,1.39.15,2.08.23,1.45.17,2.91-.18,4.36.21.64.18,1.31,0,1.25-.93.58.72-.1,1.44,0,2.16-2.65-.06-5.26-.62-7.92-.49-.88-.23-1.8.06-2.67-.24h-.44c-.79-.31-1.65.09-2.44-.23a.65.65,0,0,0-.2,0,1.55,1.55,0,0,1,0-.21c-1-.34-2.13,0-3.17-.23h-.18c-.29-.46-.92-.06-1.21-.5a60.41,60.41,0,0,1,7.48.43A6.71,6.71,0,0,0,24.76,40.16Z" transform="translate(0 0)" style="fill:#8ea4b4"/><path d="M22.84,20.45l-1.23.47c.06-.16.24-.44-.09-.42a54,54,0,0,1-8-.3c-.75-.46-1.54,0-2.3-.09-1.72-.2-3.43-.49-5.15-.62H3.87c-.41-.07-.86.11-1.22-.22l-.7,0a1.93,1.93,0,0,1,0-.24C3.47,19,5,19,6.53,19.1c.75.07,1.5.14,2.25.14,4.23,0,8.43.35,12.63.71.55.05,1.11,0,1.67,0C23.19,20.22,23.07,20.37,22.84,20.45Z" transform="translate(0 0)" style="fill:#94a1ac"/><path d="M19.71,28.14a1,1,0,0,1,.74,1.38,2.5,2.5,0,0,1-1.71,1.93,4.12,4.12,0,0,1-.94.08c-.77-.37-1.37-.78-.28-1.5C17.89,28.19,18.21,27.92,19.71,28.14Z" transform="translate(0 0)" style="fill:#0d0f0f"/><path d="M18,23.79c.23.71-.54,1-.6,1.72-.1,1-.11,1.73,1.08,1.91a1.13,1.13,0,0,1-1.19.21,1,1,0,0,0-1.07.26.51.51,0,0,1-.84-.26c-.21-.56-.72-.9-1-1.41C15.3,24.9,16.8,24.54,18,23.79Z" transform="translate(0 0)" style="fill:#3e3e37"/><path d="M14.44,26.22c.7.21,1.28.49,1.27,1.38,0,.26.24.21.41.07a.51.51,0,0,1,.56.67c-.23.59.24.85.41,1.24-1.48.3-2.37-.65-3.16-1.63C13.39,27.27,13.65,26.62,14.44,26.22Z" transform="translate(0 0)" style="fill:#0a0f11"/><path d="M33.19,34.39a3.77,3.77,0,0,0-1.78-.62A2.23,2.23,0,0,1,30,33c-.46-.65-.91-.45-1.39,0-.87-.72-1.95-.15-2.88-.49a11.38,11.38,0,0,1,4.79-.08,13.27,13.27,0,0,1,1.48.36C32.77,32.94,33.67,33.21,33.19,34.39Z" transform="translate(0 0)" style="fill:#8e9ca2"/><path d="M17.09,29.58c-.36-.27-1.09-.29-.65-1.09a.76.76,0,0,0-.32-.82c.28-.45.49-.88,1.16-.37.28.21.82.09,1.24.12.06.79.94.24,1.19.72-1.48-.24-1.58,1.12-2.19,1.89C17.54,29.72,17.36,29.61,17.09,29.58Z" transform="translate(0 0)" style="fill:#262825"/><path d="M6,19.49a34.46,34.46,0,0,1,5.36.34c.7.1,1.52-.51,2.09.37-.2.08-.66-.17-.48.36.11.31-.13.44-.23.28-.47-.72-1.07-.21-1.61-.29C9.44,20.28,7.74,19.85,6,19.49Z" transform="translate(0 0)" style="fill:#86949e"/><path d="M2.65,19.26c.42,0,.87-.16,1.22.22C3.31,20.25,3,19.92,2.65,19.26Z" transform="translate(0 0)" style="fill:#86949e"/><path d="M81,59.38h-.24a.74.74,0,0,1-.16-.88c.87-2,.46-3.94,0-5.88-.42-1.7-.12-3.53-1-5.13a1.51,1.51,0,0,1-.11-1.34h.1a4.79,4.79,0,0,1,.71,1.08,46.76,46.76,0,0,1,1.62,5,2.89,2.89,0,0,1,0,2A2.47,2.47,0,0,0,82,56,3.07,3.07,0,0,1,81,59.38Z" transform="translate(0 0)" style="fill:#cfd6e0"/><path d="M18.28,73.79c1.26-1.39,2.93-1.12,4.53-1.09.22,0,.49.22.62-.08s-.14-.43-.31-.59a1.61,1.61,0,0,0-1.62-.6,6,6,0,0,1-2.27-.37c-.76-.21-1.86.24-2.23-.94-.71.71-1.65-.48-2.47.42-.67.73-1.84.48-2.8.42-.51,0-.35-.61-.44-1.11-.82,1.87-1.9,1.27-3,.52a.73.73,0,0,0-.69-.1c-.33.12-.58.72-.87.49A8.82,8.82,0,0,1,5.31,69.2c-.22-.28-.28-.59.21-.72s.55-.27.7.35a1.41,1.41,0,0,0,1.7.94c.35-.06.56-.18.78.17s.4.31.58,0a.4.4,0,0,0-.17-.61,1.56,1.56,0,0,1-1-1c.55,0,1.13.29,1.57-.38.28-.42.67.1,1,.24.57.23,1.43,1.07,1.47-.54,0-.65.52-.29.73,0,.44.57,1,.39,1.16,0a1.6,1.6,0,0,1,1.8-1c.28,0,.61-.06.6-.42s-.39-.2-.56-.32c-.62-.46-1.33.34-2.06-.22.57-.39,1.34-.66.89-1.61.68.2,1.21.37,1.74.5.86.2,1.49-.29,1.39-1.15s.2-1.24,1-1.31.75-.42.54-.91c-.32-.74.15-.88.66-1.22A3.64,3.64,0,0,1,23,59.47c.35.07.92.08,1,.56s-.41.72-.88.78a1.11,1.11,0,0,0-.46.1.65.65,0,0,0-.18.76c.1.35.35.2.58.17.82-.1,1.37-.92,2.11-1A3.5,3.5,0,0,0,28,59.35a1.09,1.09,0,0,1,1.05-.46,9.5,9.5,0,0,0-.07,2c.24,1.14-.95,1.7-2.27,1.94a2.52,2.52,0,0,0-1.3.38,1.7,1.7,0,0,1-1.6.26,1.39,1.39,0,0,0-1.39.35c-.38.29-.27.45-.27.83a3.88,3.88,0,0,1-1.31,2.86,10.33,10.33,0,0,1-1.47.94,2.66,2.66,0,0,0,2.52,1.26c1.92-.14,3.71.52,5.53.89,1,.2,2.06.21,3.07.46.34.08.8.1.79.57s-.46.55-.8.54a5.38,5.38,0,0,0-3.7,1.36,1,1,0,0,1-.35,0,3.6,3.6,0,0,0-2.58.21,1.59,1.59,0,0,1-.38.07,6.31,6.31,0,0,0-3.17.17A2.78,2.78,0,0,1,18.28,73.79Z" transform="translate(0 0)" style="fill:#d2e2ee"/><path d="M26.69,73.31c1.11-1.5,2.79-1.43,4.73-1.5a3,3,0,0,0-2-.56c-2.11-.11-4.05-1-6.13-1.18-.58,0-1.08.15-1.64.08a6.33,6.33,0,0,1-2.68-1.3c-.36-.23-.43-.69.11-.78,1.62-.28,2.28-1.44,2.78-2.79.11-.31.58-.77-.3-.67-.23,0-.35-.19-.29-.41a1,1,0,0,1,.24-.37c1,.47.78-1.47,1.88-.87.79.42,1.69.59,2.29-.43.1-.18.38-.34.51-.22.86.81,1.37-.33,2.09-.39s.65-.82.39-1.37a1.24,1.24,0,0,1,.46-1.66l.72-.48c.44.77,0,1.52-.09,2.26a2.41,2.41,0,0,0,.09,1.59l0,.24A.51.51,0,0,1,30,63a1.71,1.71,0,0,1-.56.69,4.59,4.59,0,0,1-1.47.55c-.9.2-1.85-.1-2.72.54s-.92.85-.29,1.62c.44.55.4.72-.28,1.42.66,1.35,2.2,1.13,3.23,1.85.23.16.32-.11.45-.25.67-.74,1.09-.75,1.64.1a1.25,1.25,0,0,0,1.37.62,18.07,18.07,0,0,1,4.64.3c.36.07.85.19.9.67s-.45.6-.78.8a4.85,4.85,0,0,1-3,.79c-.56,0-1.14-.06-1.52.49a.92.92,0,0,1-.33.19c-1.31.51-2.69.28-4,.42A.45.45,0,0,1,26.69,73.31Z" transform="translate(0 0)" style="fill:#cfdbe7"/><path d="M18.28,73.79a7.3,7.3,0,0,0,3.06-.38c.78-.38,1.64,0,2.47.14,0,.59-.5.53-.87.58s-.87,0-1.29.14a7.4,7.4,0,0,0-3,.14,34.37,34.37,0,0,1-4.64.34c-3.64,0-7.25.55-10.89.48,1-.61,2.28-.48,3.36-1h0a44.12,44.12,0,0,0,7.53-.5,7.75,7.75,0,0,1,3.52,0Z" transform="translate(0 0)" style="fill:#cfdbe7"/><path d="M17.56,73.79c-2.86-.17-5.63.77-8.51.59-.82,0-1.7.46-2.54-.11,1,.07,2-.45,3-.29a3.08,3.08,0,0,0,2.31-.26,1.55,1.55,0,0,1,.92-.15,9.71,9.71,0,0,0,3.64-.33C17,73,17.35,73.21,17.56,73.79Z" transform="translate(0 0)" style="fill:#d2e2ee"/><path d="M29.81,62.26a1.43,1.43,0,0,1-.32-1.7,5.07,5.07,0,0,0,.32-2.15.74.74,0,0,1,.5-.71C30.14,59.22,30,60.74,29.81,62.26Z" transform="translate(0 0)" style="fill:#bfc7c9"/><path d="M6.51,65.36a1.41,1.41,0,0,1-1.24.24C5.6,65.36,5.91,65,6.51,65.36Z" transform="translate(0 0)" style="fill:#dfeefc"/><path d="M43.5,75.46c.35-1.38,1.33-.16,1.94-.47.61-.76,1.62-.59,2.38-1-.8-1.49-.74-1.88.48-3.26.21-.24.49-.45.16-.8-.77-.34-1.56-.67-1.74-1.65a.86.86,0,0,0-.81-.62c-1-.16-1.11-.88-1-1.7s.69-1.1,1.46-1.06a2.9,2.9,0,0,0,.83-.09c.46-.11.85-.26.67-.89s.07-.84.69-.73a4.83,4.83,0,0,1,.8.37c.45.2,0,1,.72,1a1.3,1.3,0,0,1,.12,1.15c-.08.43-.38.84.43,1,.54.13.47.8.18,1.22s-.33.67.16.93a.94.94,0,0,1,.49.78A2.44,2.44,0,0,0,52.75,72c.53.32.38.84-.12,1.16a2.33,2.33,0,0,1-1.49.3c-.42,0,0,.23-.06.34a.75.75,0,0,1-.55.93,3,3,0,0,0-2.21,2.21l-3.87.2c-.28-.25-.48-.52.08-.62a11.47,11.47,0,0,1,1.31,0c.26,0,.66.1.66-.3a.54.54,0,0,0-.65-.55C45,75.79,44.29,75.31,43.5,75.46Z" transform="translate(0 0)" style="fill:#a2abae"/><path d="M82.19,78.6a6.16,6.16,0,0,0-4.88-.9c-1.16.18-2.3.2-3.45.31-.94.09-1.86-.29-2.81,0-.37.11-.86-.32-.81.57,0,.36-.62,0-.87-.11a3.68,3.68,0,0,0-3.57,0c-.12.06-.2.26-.38.07-1-.91-2.18-.53-3.15-.35-2.15.41-4.21-.12-6.3-.16a11.11,11.11,0,0,0-1.17.08c-.42-.41-.95-.19-1.44-.23s-1,.05-1.2-.49c.27-.75.9-.79,1.55-.82a6.42,6.42,0,0,0,2.47-.22,16.44,16.44,0,0,0,3,.61c.1.06.21.14.21.25,0,.27-.05.65.35.55s-.15-.43,0-.64a.86.86,0,0,1,.27-.2,13.42,13.42,0,0,1,3.8.08,20.5,20.5,0,0,0,5.25,0,2,2,0,0,1,.34,0c.34,0,.67.11,1,.12a1.37,1.37,0,0,0,1.06-.46.54.54,0,0,1,.76-.09c1.17.9,2.29,0,3.43-.09.66-.08.13-.8.48-1.08a1.62,1.62,0,0,1,1.18-.67c.79.3,1.77,0,2.42.88.2.25.75.07,1.06-.25s.95-.4,1.32-.8c.46-.19,1-.54,1.22.25-.81.19-.88,1.08-1.45,1.52-.37.28.11.43.31.57.42.27,1,.55,0,.82S83,78.38,82.19,78.6Z" transform="translate(0 0)" style="fill:#758288"/><path d="M56.24,76.45c-.16.71-.74.43-1.16.45-1,.06-2-.2-2.92.49-.18-.15-.42-.46-.53-.42-1.13.37-2.21-.39-3.31-.07.38-.52-.73-.74-.31-1s1-1,1.7-1.16c.5-.12,1.11-.23,1.25-.91s.59-.39.95-.16a2.3,2.3,0,0,1-.08,1.49,1,1,0,0,0,.13,1c1.08.47,2.2.14,3.3.16a1.51,1.51,0,0,1,.34-.08A.71.71,0,0,1,56.24,76.45Z" transform="translate(0 0)" style="fill:#929da3"/><path d="M58.4,24.05l-4.32-.49c-.57-.45-1.23-.2-1.84-.21a3.5,3.5,0,0,1-2.72-1.21c2.62.32,5.23.72,7.86.92,2.35.19,4.66.65,7,.86,1,.08,2-.53,2.9.13.64.47,1.53.2,2.16.72-1.63.13-3.2-.4-4.84-.4C62.55,24.37,60.48,24.17,58.4,24.05Z" transform="translate(0 0)" style="fill:#b7c1cd"/><path d="M79.8,47.36a3.48,3.48,0,0,1,.83,2.56,16.8,16.8,0,0,0,.64,3.95,10.48,10.48,0,0,1-.51,5.5L80,60.55c-1.2,1.66-1.07,2.63.49,3.88.32.13.44.48.79.63,1.08.46,1.22,1,.67,2.23-.29.7.26,1.5-.25,2.17a1.2,1.2,0,0,1-.49-1.37c.08-.55-.07-1.08-.64-1.06-1.9.06-2-1.3-2.25-2.62,0-.12,0-.23,0-.35-.11-1,0-2.06-.1-3.08a.9.9,0,0,1,0-.36c1.71-1.14,1.89-1.85,1.09-3.83-.34-.83-1.11-1.61-.42-2.65.2-.31-.24-.44-.42-.63-.95-1-1.07-1.64-.36-2.74a4.07,4.07,0,0,0,.55-1.67c.12-.38-.1-.79,0-1.14S79.14,47,79.8,47.36Z" transform="translate(0 0)" style="fill:#a7a79b"/><path d="M8,76.92a22.87,22.87,0,0,1,4.45-.3,7,7,0,0,0,1.25-.18,15.71,15.71,0,0,1,5.12,0l.06.34c-1.14-.12-2.25.62-3.42.08-.67-.31-1.39-.48-1.73.53-.15.43-.41.45-.84.24-.72-.34-.76-.29-1,.51-.05.14-.13.23-.2.2-1-.45-1.71.78-2.68.44,0-.26.24-.29.4-.39.32-.21.79-.25.92-.69,0-.16-.13-.26-.3-.29-.48-.09-1-.39-1.35.27,0,0-.14,0-.25.08Z" transform="translate(0 0)" style="fill:#a0b1bc"/><path d="M1.46,77.64a1.08,1.08,0,0,1,.94-.39,3.25,3.25,0,0,0,2.47-.37c.37-.29.44.2.68.27.22.39.8.1,1,.58-1.29.66-2.71.19-4,.5A1,1,0,0,1,1.46,77.64Z" transform="translate(0 0)" style="fill:#a0b1bc"/><path d="M23.8,78.34H21.64c.7-1.28,1.4-1.35,2.17-.22q.09.07.06.15S23.82,78.34,23.8,78.34Z" transform="translate(0 0)" style="fill:#819299"/><path d="M23.8,78.34c0-.07,0-.15,0-.22h1.43c.31.06.61.24.26.51s-.69.82-1.32.51C23.83,79,23.81,78.66,23.8,78.34Z" transform="translate(0 0)" style="fill:#5f7179"/><path d="M21.3,77.81c-.73.22-1.46.58-2-.18-.11-.15-.3-.31-.12-.52a.41.41,0,0,1,.54-.06Z" transform="translate(0 0)" style="fill:#819299"/><path d="M8.44,79.1l.18.14c.27.2.77-.13.89.37,0,.1-.15.29-.27.34-.48.17-.73-.17-1-.5a1.21,1.21,0,0,1-.08-.34A.65.65,0,0,1,8.44,79.1Z" transform="translate(0 0)" style="fill:#5f7179"/><path d="M83.41,74.74c-.42-.42-.82-.17-1.22,0a2.42,2.42,0,0,1-1.32.3.73.73,0,0,0-.74-.14c.19.08.38-.06.56,0a.53.53,0,0,1,.29.54.91.91,0,0,1-1.45.35c-.51-.78-1.17-.66-1.87-.67-.09,0-.17-.23-.25-.36a.54.54,0,0,1,.22-.25c.26-.13.54-.19.8-.29,1.57-.47,3.12-1.06,4.86-.71-.69-.61-1.37-1.07-2-1.61s-1.36-1-1.07-2.06a.92.92,0,0,1,.32-.18.88.88,0,0,1,.91.24c-.41,1-.16,1.42,1,1.49a16.21,16.21,0,0,1,4.7,1.13,8.38,8.38,0,0,0,3,.09.93.93,0,0,1,.84.3c.25.32-.14.38-.24.55a2.12,2.12,0,0,1-.45.85.8.8,0,0,1-.27.18,7.57,7.57,0,0,0-3.51-.16C85.54,74.47,84.47,74.62,83.41,74.74Z" transform="translate(0 0)" style="fill:#8c99a2"/><path d="M90.11,74.53l0-.26A1.78,1.78,0,0,1,91.77,74l.08.06a.94.94,0,0,1-.9,1.16C90.42,75.29,90.1,75.11,90.11,74.53Z" transform="translate(0 0)" style="fill:#9ca8b1"/><path d="M22.84,20.45l.24-.48,1-.49L25,19c.89.16,1.77-.16,2.67.06.57.14.54-.87,1.17-.78l.09.15a3.51,3.51,0,0,1-.72,1.73c-.5.84-1.15.39-1.75.06C25.29,21,24.13,21.62,22.84,20.45Z" transform="translate(0 0)" style="fill:#a8a48f"/><path d="M40.63,74.51c-2.48.36-5-.22-7.45-.11-.66,0-1.35-.69-2.16-.37-.23-.51.15-.72.48-1h0a.87.87,0,0,1,1.27-.17,2.25,2.25,0,0,0,1.33.48c1.68,0,3.35.08,5-.1.47,0,1.24.17,1.29-.7a1.81,1.81,0,0,0-.93-1.92,7.61,7.61,0,0,0-3.2-1,17.26,17.26,0,0,1-5.75-1.2c-1.32-.41-2.77-.45-3.82-1.54-.25-.26-.67-.23-1-.3s-1-.23-1-.82.46-.88,1-1a1.11,1.11,0,0,1,.48,0c.05,1.22,1,1,1.77,1.12a3.16,3.16,0,0,1,.67.18c.56.25,1.18.07,1.76.23s1,.11,1.47.3a2.57,2.57,0,0,0,1,.34c1.92.12,3.78.61,5.68.83a11.42,11.42,0,0,1,7,3.64c.83.86.68,2-.42,2.38A9,9,0,0,1,40.63,74.51Z" transform="translate(0 0)" style="fill:#c2cbd2"/><path d="M40.63,74.51c1.52,0,2.87-.72,4.33-1,.64-.1.64-.58.79-1s-.36-.51-.45-.72c-.76-1.6-2.48-1.91-3.72-2.8s-2.73-.77-4.14-1l-5.17-.76a.77.77,0,0,1-.54-.44c.43-.51,1.1-.24,1.61-.49a1.69,1.69,0,0,1,.38-.07,3.24,3.24,0,0,1,1.16.09,9.17,9.17,0,0,0,3.79.32c1.64-.05,3.26.11,4.9.09a17.15,17.15,0,0,0,3.62,2.64c.43.29,1.08.08,1.61.3.76.21.45.6.12.93s-.64.47-.91.76c-.76.82-.49,1.87.81,2.72L45.44,75c-.48-.9-1.25-.42-1.89-.36A5.27,5.27,0,0,1,40.63,74.51Z" transform="translate(0 0)" style="fill:#b3bdc1"/><path d="M31.5,73.07,31,74a10.33,10.33,0,0,1-2.88.24c-1.05,0-2.08.24-3.13.24H21.89l-.24-.25c.53-.79,1.54-.19,2.16-.72h0a4.59,4.59,0,0,1,2.64-.24h.24a18.21,18.21,0,0,0,4.11-.14C31,73.15,31.27,73.1,31.5,73.07Z" transform="translate(0 0)" style="fill:#cbd5df"/><path d="M25,74.51a4.94,4.94,0,0,1,3.13-.24A5,5,0,0,1,25,74.51Z" transform="translate(0 0)" style="fill:#b9c6d0"/><path d="M89.16,70a7.59,7.59,0,0,1-4.54-1c-.24-.13-.59-.38-.58-.56.06-1.13-.86-1.7-1.36-2.5a.53.53,0,0,1-.25-.72c.2,0,.48-.07.59,0,1.13,1,2.68,1.3,3.87,2.17s1,.85-.26,1.4C87.61,69,88.73,68.78,89.16,70Z" transform="translate(0 0)" style="fill:#c5d0da"/><path d="M82.43,65.14c.09.24.17.48.25.72,0,.64,0,1.29,0,1.93l-.7-.5c.45-1.43-.77-2-1.46-2.86Z" transform="translate(0 0)" style="fill:#bec0c1"/><path d="M90.61,70.42c-.67.4-1.17.3-1.45-.47A2.29,2.29,0,0,1,90.61,70.42Z" transform="translate(0 0)" style="fill:#c5d0da"/><path d="M81.47,69.94h-1a.6.6,0,0,1,0-.49c.2-1.32.2-1.33-1.08-1.43a1.81,1.81,0,0,1-1.67-1.63,9.57,9.57,0,0,0-1.85-4.89,2.4,2.4,0,0,1-.17-1.76c.16-.23.48-.35.59-.16.46.77,1.16.38,1.76.42.21.15.35.32.24.59v.23a3.34,3.34,0,0,1,0,1.88,2.2,2.2,0,0,0,.19,1.48c.37.25.16.67.21,1,.19,1.12.69,1.62,1.88,1.45.92-.13,1.07.67.93,1.25a3.33,3.33,0,0,0,.11,1.61Z" transform="translate(0 0)" style="fill:#8c8a7c"/><path d="M91.77,74c-.5.39-1.09.22-1.64.27.14-.34.28-.68.7-.77C91.17,73.61,91.71,73.36,91.77,74Z" transform="translate(0 0)" style="fill:#c0cbd6"/><path d="M79.8,47.36c-.65.15-1.12.41-.73,1.2.13.27.11.45-.24.48a2.25,2.25,0,0,1-2-1.95,4.44,4.44,0,0,0-2-2.57c-.47-.36-.8,0-1.23.24.55.52,1.08,1.08.39,1.81a2.25,2.25,0,0,1-2.67-.07,7.64,7.64,0,0,1-1.47-2.43.39.39,0,0,1,.11-.53c.2-.13.38,0,.56.09s.5.49.71.26.71-.55.84-1a2.37,2.37,0,0,0-1.78-2.8A3.24,3.24,0,0,1,68.26,38c.11-.05.24-.16.32-.13,1.26.4,2.47,1,3.71,1.32,2.45.72,3.38,3.13,5.34,4.33a.85.85,0,0,1,.15.68c-.24,1.24.33,1.82,1.51,1.94h.15Z" transform="translate(0 0)" style="fill:#b1aa92"/><path d="M79.29,46.13c-1.77.36-2.29-.47-1.66-2.62a2,2,0,0,0-.24-1.2h.47c.4.61.06,1.59,1,1.93C79.23,44.82,78.92,45.56,79.29,46.13Z" transform="translate(0 0)" style="fill:#a7a79b"/><path d="M29.82,63l0-.47c.39-.68.85-1.35,1.2-2a6.12,6.12,0,0,0,.79-3.65,5.8,5.8,0,0,1,.77-3.18,18,18,0,0,0,1.66-4.42c-.26-.32-.6.21-.87-.08,0-.07,0-.15,0-.21A5.15,5.15,0,0,0,34,45.79c-.26-1.59.59-3.28.13-4.81-.36-1.2.81-2.28,0-3.42-.09-.12.62-.84,1-1.28,1.6.08,1.16-1.53,1.87-2.13-.07-.17-.13-.2-.21-.22-.34-.1-.93.31-1-.31s.38-.86.95-.82a.57.57,0,0,0,.53-.18,2.86,2.86,0,0,0,.67-.8,3.07,3.07,0,0,1-.88,1c-.27-.27-.49-.33-.79,0s-.44.58-.87.39c-.39,0-1,.36-.85-.46s.27-1.39.35-2.08-1-1-.55-2c-.82.29-.67.87-.73,1.27a2,2,0,0,1-2.35,1.83c-2.33-.66-4.69-.16-7-.26-1.6-.07-3.11.6-4.71.47l.23-.25a10.34,10.34,0,0,1,4.25-1c1.59.1,3.15-.54,4.77-.17a.65.65,0,0,0,.83-.49c-.76-3.33-.66-6.52,1.77-9.54-.91.21-1.63.76-2-.26a1.82,1.82,0,0,1,0-.33,1.31,1.31,0,0,0-.5-1.65l0,0a1,1,0,0,1,1.62.44c.22.46.32.48.56.05.64-.66,1-.05,1.32.35a7.49,7.49,0,0,1,1.25,2.43c.17.71.48.84,1.14.87a17.17,17.17,0,0,0,3.92-.27,29.61,29.61,0,0,1,4.51-.37,2.47,2.47,0,0,1,2.67,2c0,.31,0,.56-.39.63.13.12-.63-.34-.08.13.29.25-.1.5-.32.63a9.85,9.85,0,0,1-1.77,1A12.39,12.39,0,0,0,39.83,26a2.55,2.55,0,0,1-.83,0c-.42-.14-1.1-.08-1-.75s.68-.53,1.15-.5.81.06,1-.47.1-.82-.52-.71-1.34.18-1.71.91a2.77,2.77,0,0,1-1.19,1c-.28.16-.53.38-.44.76a.89.89,0,0,0,.63.67c.39.11,1-.22,1.13.38s-.61.72-1,1a2.41,2.41,0,0,0,1-.68c.17-.17.37-.36.63-.22s.13.41.11.64c-.06.86-.88,1.08-1.33,1.61.48.12.78-1,1.25-.31.58.9-.71.84-.84,1.34.34-.33.87-.86,1.32-.4s1,.94.76,1.76a3.11,3.11,0,0,1-.78,1.46c1,.18,1,.24.88,1.66a3.18,3.18,0,0,1,1.14-2.28A2.45,2.45,0,0,0,42,31.19,1.71,1.71,0,0,1,43,30a.9.9,0,0,1,1,.49c.17.38.36,0,.53.08a.89.89,0,0,1,.67.15.6.6,0,0,1,.13.5c-.38.86-1.39,1.12-1.83,1.93-.19.48-.67.75-1.07,1.42.31-.48.5-.82.83-.59s.12.57-.06.83c.42-.38.2-1.44,1.24-1.19-.06,1-.06,1,1.25,1.24a.54.54,0,0,1-.13.65c-.42.35.09.32.17.45.22.35.17-.07.22-.1.51-.41.79-1.11,1.57-1.16a.76.76,0,0,1,.31.13.48.48,0,0,1,0,.49,2.93,2.93,0,0,1-1.06,1.3c.35-.39,1.07.07,1.57-.35S49,34.75,50,34.65a1.11,1.11,0,0,1,.78.39c0,1.1-.95,1.35-1.58,1.89a8.17,8.17,0,0,0-1.26,1.43A7.7,7.7,0,0,1,49.18,37c.19-.12.34-.3.59-.28.56.27.19.6,0,.85a2.61,2.61,0,0,0-.37,2c.46.52.17,1,0,1.51-.12.3-.66.61-.12,1a.59.59,0,0,1,.2.24,3.49,3.49,0,0,1-1.81,2.3c-.54.16-1.06-.5-.77-1.22.21-.5,0-.75-.19-1.13,0,.88.38,1.92-1,2-.22,0,0,.22,0,.34A2.74,2.74,0,0,1,45,45.85c-.79,1-1.5,1-2.09-.15a2.92,2.92,0,0,0-1-1.34.67.67,0,0,1-.35-.6c.21-1.32-.24-2.7.32-4a.47.47,0,0,1,.15-.19c-1.54-.66.46-1.5-.11-2.27-.17-.23,0-.8-.46-.81s-.41.44-.43.75a3.72,3.72,0,0,0,.3,2c.42.82,0,1.31-.57,1.73s-1.08,0-1.44-.46a7,7,0,0,0,.5,1.48c.24.71-.36,1.19-.58,1.77s-.22,1.32-.65,1.65c-1.07.83-.92,1.71-.45,2.74a.66.66,0,1,1-1.12.7,6.08,6.08,0,0,1-1.15-1.47.45.45,0,0,0,0,.52c.41.48,1.09.87.33,1.58.88,1-.15,2.14.26,3.17a.89.89,0,0,1-.15.31c-.84.83-2,1.46-2.15,2.79,0,.23-.2.47-.11.69.35.83.54,1.54-.3,2.31-.33.3.23,1,.29,1.56a2.35,2.35,0,0,1,0,.59C33.43,62.43,31.24,63.86,29.82,63Z" transform="translate(0 0)" style="fill:#a19c84"/><path d="M45.69,23.82c-1-2.12-2.81-1.61-4.66-1.57-1.55,0-3,.51-4.56.52-.76,0-1.61-.34-2.43,0-.42.19-.72-.06-.76-.71a5.47,5.47,0,0,0-1.71-3.34c-.16-.17-.37,0-.55,0,.43-.71.76-1.12,1.55-.18a6.73,6.73,0,0,0,3.13,1.86,7.92,7.92,0,0,0,3.78.44c2-.28,4,.45,6,.66a4.54,4.54,0,0,1,2.81,1.31,1.64,1.64,0,0,1-1.29.69C46.55,23.45,46.19,24,45.69,23.82Z" transform="translate(0 0)" style="fill:#b5ab90"/><path d="M46.87,23.33l1.45-.48.48-.24c.22.48.38.92,1.11.76s.92.77,1.43,1.1.42,1.46,1.34,1.58l-.27.63c-.6.72-1.36.46-2.1.38a.41.41,0,0,1-.18-.28c0-1.21-.75-1.89-2.19-2S46.52,24.68,46.87,23.33Z" transform="translate(0 0)" style="fill:#a19c84"/><path d="M62.88,81.28c-.38-.11-.92.16-.94-.35s.48-.44.85-.43,1,0,1,.41S63.12,81.06,62.88,81.28Z" transform="translate(0 0)" style="fill:#a9b2bd"/><path d="M32.21,49.75c-.09.41-.18.81-.28,1.22l-.7.76c-1.11-1.54-.92-3.12.51-4.13C31.7,48.36,32.39,49,32.21,49.75Z" transform="translate(0 0)" style="fill:#dfeefc"/><path d="M21.88,41.1a6.89,6.89,0,0,1,2.67.24A4.15,4.15,0,0,1,21.88,41.1Z" transform="translate(0 0)" style="fill:#cae0f2"/><path d="M19,40.87c.81.07,1.66-.2,2.43.23C20.63,41,19.78,41.35,19,40.87Z" transform="translate(0 0)" style="fill:#cae0f2"/><path d="M15.59,40.41c1.06.09,2.15-.28,3.17.23C17.7,40.57,16.62,40.84,15.59,40.41Z" transform="translate(0 0)" style="fill:#8cabb9"/><path d="M61.76,31.27c.1.88-.74.72-1.14,1s-.93,0-1,.6a3.6,3.6,0,0,1-3.2-.06c.11-.68.79-.49,1.15-.77a13.3,13.3,0,0,1-2.35.71c-.33,0-.84.24-.89-.2-.07-.72.72-.52,1.1-.77s.86,0,1.28-.15c-.48.14-1,0-1.48.21a.71.71,0,0,1-.65,0c-.56-1,.17-1.07.87-1.19-.42-.33-1.06.32-1.41-.28-.12-.42-.51-.24-.77-.34-.52-.19-.57-.47-.18-.84.15-.06-.05,0,.1-.06.6-.25,1.42-.27,1.35-1.25.7.22,1.56-.11,2.07.76.1.17.73,0,1.18,0C56.7,30.79,59,28.89,59,30c-.12.35-1-.19-1,.53,0-.16,0,.22-.06.11s-.13.08-.12.08c.38,0,.8-.32,1.13.12C59.77,31.45,60.79,31.21,61.76,31.27Z" transform="translate(0 0)" style="fill:#a59d87"/><path d="M54.55,27.9c-.26.87.68.2.79.7-.72.29-1.35.88-2.25.74a1.18,1.18,0,0,1-1.1.23.58.58,0,0,1-.37-.36c.08-.36.39-.32.64-.38a3.36,3.36,0,0,1-.71,0,1,1,0,0,0-.88.08,1.47,1.47,0,0,1-2.12-.2.48.48,0,0,1-.08-.31.74.74,0,0,1,.27-.36c-.16,0-.29.07-.44.08a1.33,1.33,0,0,1-.45-.06c-.42-.22-.33-.61,0-.71.76-.25,1.48-.91,2.38-.43l2.21-.25c.19.09.58.09.24.42s-.67,0-.78.42c.47.39,1.07-.49,1.57.23l-1.28.44,0,.16Z" transform="translate(0 0)" style="fill:#867c68"/><path d="M58.9,30.8a4.83,4.83,0,0,0-2.21.34c.45-.7.92-.53,1.26-.65s.68-.28,1-.1S59.22,30.72,58.9,30.8Z" transform="translate(0 0)" style="fill:#7d7b68"/><path d="M36.31,52.65c0-.76-.45-1.47.08-2.31.33-.5-.41-.66-.88-.73.14-.37.51-.38.75-.56s.28-.3.09-.49c-.9-.94-.9-.94-.11-2.26-.34,1.2.46,1.57.84,2.17.15.23.41.64.76.39s.17-.65,0-.87a1.51,1.51,0,0,1,0-2.23c1.17-.76.75-2.19,1.63-3a.63.63,0,0,0,0-1c-.67-.67-.46-1.39-.16-2.45.12.85.34,1.38.89,1.55.39.13.57-.35.82-.58a.63.63,0,0,0,.1-.94,3.34,3.34,0,0,1-.35-2.62c.07-.31,0-.83.55-.78.2,0,.67-.25.66.21s.93.73.27,1.32c-.1.09-.44.15-.08.38s.51.38-.07.75c-.23.14-.64.21-.4.55s.46-.07.67-.2a1.45,1.45,0,0,1,.45-.22c-.62,1-1.43,1.93-.62,3.19.14.22-.19.42-.24.64-.15.63-.43,1.29.48,1.67.41.17.54.63.64,1.09s.32.89.79,1,.66-.38.87-.72.77-.92.55-1.62a.45.45,0,0,1,.49-.52v.61c1.33-.54,0-2.33,1.45-2.79.35.27-1.37,1.94,1,1-1.06.62-1.24,1.25-.87,2.15.6-.89,2-1,1.92-2.4a.65.65,0,0,0,.08-.31c0,.1,0,.22-.08.31l-.86.61c0-1.22,1.28-2,.86-3.25l.11-.1a.54.54,0,0,1,.43,0c.13.08.24.17.36.25.75-.19.72-.92,1-1.44a1.33,1.33,0,0,1,.63-.78.72.72,0,0,1,.52,0,.56.56,0,0,1,.22.26,5.09,5.09,0,0,1-1.27,3c-.66.66-.49,1.66-1.11,2.3a3.53,3.53,0,0,0-1.35,1.48c.3-.34.45-.89.94-1.17a.38.38,0,0,1,.28,0c.48,0,.48-.63.91-.7s.81-.58,1.11-1a1.87,1.87,0,0,1,2.3-.68c.26.81-.35,1.11-.86,1.47a.53.53,0,0,0-.81.14c-.27.31-.43.73-.82.93.09.06.22,0,.31.11.26.18.2,0,.22-.17.07-.57.16-1.13.94-1.09,1-.2,1.34-.82.89-1.53-.17-1.07.75-1.83.82-2.83.24-.38-.15-.64-.2-1a1.07,1.07,0,0,1,0-.66c.37-.47.84-.86,1.22-1.33a.53.53,0,0,1,.57.3,3.59,3.59,0,0,1,.19,1.17c0,.31-.21.64.2.83,0,0,0,.08,0,.11s-.05.25,0,.1c.46-1.36.46-1.36,2.11-.77-.45-.51-2.06-.23-1.08-1.62a2,2,0,0,1,.61-.7c1-.39,1.93-.69,2.8.22l1,.25c.34.29,1,.28,1,1,.21.47.64.15,1,.26.31.6-.09.89-.55,1.07S63,37,62.77,36.64a1.58,1.58,0,0,0-2.17-.76c1.14.25,1.53.89,1.16,1.94a6.28,6.28,0,0,1-.16,1,.53.53,0,0,1-.39.26c-.5-.33-.74-.92-1.22-1.27a1.05,1.05,0,0,1,0-.47c-.1.43-.72.61-.51,1.19a.35.35,0,0,1-.13.28c-.21.5-.65.88-.7,1.58a9.11,9.11,0,0,1,.71-1.59c.69-.48,1.29-.6,1.71.33.11.23.41.22.63.32s.62.21.68.45c.42,1.42,1.59,2.33,2.39,3.48a8.27,8.27,0,0,1,1.26,3,4.6,4.6,0,0,1,0-.73c0-.41-.27-1,.27-1.18s.63.37.94.58c.78.52,1.61,1,2.4,1.5a26.74,26.74,0,0,0,3.11,2.32c1.33.64,1.34,1.23.67,2.65a.94.94,0,0,0,.42,1.33c1,.41,1.25,1.28,1.7,2.06s1.42,1.53,1.66,2.6c0,.16.13.3.15.46.06.6-.07,1.26.73,1.53.18.06.22.41.08.65a1.68,1.68,0,0,0-.53.21c-.64.6-1,.48-1.19-.37,0-.23-.24-.28-.44-.32-1.37.14-2.29-.89-3.42-1.35a1.26,1.26,0,0,1-.25-.47c-.35-1.21-.35-1.21-2.56-1.19.66,1,1.23,2,1.79,3a4.24,4.24,0,0,0,1.61,1.56c.6.36,1.11.88.83,1.67s-1,.74-1.73.68a6.15,6.15,0,0,1-1.52-.32,2.49,2.49,0,0,0-2,0c-.94.44-1.71-.53-2.65-.27-.27.07-.36-.37-.38-.65,0-.6-.13-1.19-.12-1.73.1,1-.28,2-.22,3.06a.7.7,0,0,1-.57.7.38.38,0,0,1-.29-.14,7.13,7.13,0,0,1-.1-4c0-.18,0-.14-.19-.13-.68,0-1.35.4-2-.26s-1.52-.45-1.75.55a5.58,5.58,0,0,1-.25,1.28c-.14.3-.32.63-.7.52s-.25-.5-.18-.8.29-.58.27-.76c-.71,1.22-.49,2.78-.9,4.22.27-.19.3-.49.5-.7a.45.45,0,0,1,.53-.16.44.44,0,0,1,.28.48c-.42,1.41,0,3.09-1.25,4.24A3.84,3.84,0,0,1,57,68.21a6.46,6.46,0,0,1-1.11-1.57c-.65-1.49-.82-3.12-1.37-4.63-.42-1.11-1.46-1.74-2-2.74-.14-.19-.22-.46-.51-.51s-.77-.18-.9-.54c-.46-1.37-1.84-1.44-2.85-2a23.79,23.79,0,0,1-3.33-2.63c-.41-.48-.6-1.18-1.12-1.62-.24-.43,0-1-.35-1.39s-.88-.72-.28-1.33-.21-.8-.26-1.22a8.57,8.57,0,0,0-1.62-2.71c-.36-.52-.73-.6-1,.08a4.77,4.77,0,0,0-.19,3.58c.5,1.33-.31,2.28-1.66,1.92-.66-.17-.8.14-1.08.55S37.17,52.68,36.31,52.65Z" transform="translate(0 0)" style="fill:#98927c"/><path d="M61.53,38a4.41,4.41,0,0,1-.05-.81c0-.25.33-.5,0-.74s-.28.35-.49.26c-.51-.2-.71-.7-1-1.11,1.49-.54,2.21-.34,3,.79.17.24.27.64.67.59a.9.9,0,0,0,.79-.89c.18.16,1.11-.43.52.51-.13.19,0,.34.11.35C66.2,37,67,38.1,68.26,38c.22.47.38,1,1.11.77a.59.59,0,0,1,.67.38c.14.36-.5.19-.44.55,2,.12,2.44.58,2.76,2.6.09.55.8,1.3-.5,1.3,0,0-.07,0-.1.07-.68.8-.68.8-1.86-.15.53,1,.92,1.69,1.34,2.4.57,1,1.48.77,2.35.65a.66.66,0,0,0,.5-.62c.07-.49-.36-.66-.66-.89s-.63-.11-.53-.51.42-.24.69-.19c.07,0,.21,0,.22,0,.52-1.38,1.15-.18,1.43.07.92.79,2,1.5,2,3,0,1,1.22.94,1.59,1.64a1.63,1.63,0,0,1-.2,1.69c-.93,1.47-.92,1.72.44,2.78.25.2.53.37.66.46-.1.82-.8.16-.82.64a2.58,2.58,0,0,0,.24,1c.3.74.66,1.45.94,2.2a2,2,0,0,1-1.73,2.74l-.25-.49c-.15-1.16-1.21-.52-1.8-.86a1.82,1.82,0,0,0,.07-2.71,5.44,5.44,0,0,1-1.68-2.64c0-.31-.32-.4-.6-.51-1.37-.54-1.62-1.46-.66-2.47.34-.36.4-.58,0-1-.62-.61-1.11-1.36-2.11-1.38-.15,0-.41-.09-.42-.18-.21-1.21-1.53-1.25-2.14-2-.17-.22-.42-.52-.63-.52a1.85,1.85,0,0,1-1.77-1.26,25.26,25.26,0,0,1-.16,3.12,20.9,20.9,0,0,1-1-2c.92-1.36-1.56-1.5-.95-2.7.07-.15-.35-.26-.54-.39a2.41,2.41,0,0,1-1.22-1.66,1.33,1.33,0,0,0-1-1.19c-.24-.18-.53-.34-.26-.71l.25-.25a.32.32,0,0,1,.41.07c.13.12.16.3.26.44a.77.77,0,0,1-.09-.55.44.44,0,0,1,.12-.19c.92.31,2,.12,2.5.51a8.88,8.88,0,0,0-2.53-.48C61.82,38.53,61.49,38.5,61.53,38Z" transform="translate(0 0)" style="fill:#a59d87"/><path d="M56.49,35.34l-.42-.23c-.41-.76.33-.88.67-1.22a1.79,1.79,0,0,1,.42-.19c-.2,0-.4,0-.6,0-.47,0-1.33.58-1.06-.65a.84.84,0,0,1,.23-.23c.24-.11.48-.25.76-.1a15.7,15.7,0,0,0,3.14.22l1.18-.24c.38,0,.91-.1.93.4s-.52.4-.87.42a10,10,0,0,1-1.81,0c.86.77-.12.81-.41,1.13l-.25.74C57.76,35.55,57.13,35,56.49,35.34Z" transform="translate(0 0)" style="fill:#948c78"/><path d="M58.65,34.62c-.19-.47.68-.34.46-.77s-.5,0-.88-.09c1-.91,2.19-.43,3.37-.63l-.79-.45c.56-.43,1.21-.13,1.87-.24,0,1-1,1.36-1.14,2.18A4.75,4.75,0,0,0,58.65,34.62Z" transform="translate(0 0)" style="fill:#a59d87"/><path d="M63.45,35.82c-.3-.35-.78-.49-1-1A4.13,4.13,0,0,0,64,34.68c.15.38-.19.36-.26.57.37.27.92-.13,1.33.39C64.52,36,64,35.77,63.45,35.82Z" transform="translate(0 0)" style="fill:#a59d87"/><path d="M37.27,32.72c-.25.59-1.25,0-1.36,1a2.61,2.61,0,0,1,1.56-.08c0,.6-.47.89-.62,1.33-.05.14-.23.24-.27.38-.34,1.18-.33,1.19-1.52,1-.22-.5-1.06-1-.05-1.52a.44.44,0,0,0,.09-.28c-1.57-.74.59-.79.25-1.3.56-.13.82-1.33,1.67-.48C37.11,32.59,37.19,32.6,37.27,32.72Z" transform="translate(0 0)" style="fill:#8d8d7d"/><path d="M33.6,49.57c0,.63.21,1.08-.27,1.53A1.34,1.34,0,0,1,33.6,49.57Z" transform="translate(0 0)" style="fill:#a19c84"/><path d="M29.57,20c.38.88.51.85,1.82-.36a2.6,2.6,0,0,1-.71,2.7c-1,.77-.87,1.73-1,2.61a8.51,8.51,0,0,0,.37,5.13.66.66,0,0,1-1-.06,11.73,11.73,0,0,0-1.67-1.14,4.83,4.83,0,0,1-2.06-2.95c-.29-.93.48-1.47.83-2.13s.61-1,.08-1.59,0-1.33.19-2c1.75.55,1.79-1.06,2.42-1.92,1.3.1,1.08.85.71,1.66-.49-.27-.49-.27-.64.33C29.2,20.29,29.23,19.8,29.57,20Z" transform="translate(0 0)" style="fill:#8f8469"/><path d="M27.41,28.86c.71-.06,1.37,0,1.72.77a.87.87,0,0,0,.92.43,1,1,0,0,1-1.17.9c-1.56-.47-3.05.29-4.56.08s-3,.8-4.61.68c0-.24.12-.57.34-.57,1,0,1.24-.87,1.83-1.34a1.94,1.94,0,0,1,.58-.12c.24,0,.52,0,.63-.23s-.12-.46-.31-.59c-1.81-1.22-1.26-3.08-1.31-4.78,0-.4.29-.63.66-.76.85.24.32.94.26,1.26-.48,2.58.91,4.39,3.49,4.34C26.39,28.92,27,29.78,27.41,28.86Z" transform="translate(0 0)" style="fill:#828377"/><path d="M22.13,23.33a5,5,0,0,0,.69,5.17c.33.32,1.28.4.77,1.19s-1.12.35-1.71.12c.11-.28.39-.58.08-.86-1.28-1.14-1.2-2.52-.84-4a12.18,12.18,0,0,0,.06-2c0-.74-.41-.84-1-.81.58-.38,1.06-.58,1.31.36C21.58,22.79,21.91,23.05,22.13,23.33Z" transform="translate(0 0)" style="fill:#727668"/><path d="M19.94,22.56c.4-.14.79-.23,1,.3a.48.48,0,0,1-.18.63c-.46.21-.86.17-1-.41Z" transform="translate(0 0)" style="fill:#1a1413"/><path d="M26.45,73.31l-2.64.24A2.36,2.36,0,0,1,26.45,73.31Z" transform="translate(0 0)" style="fill:#cfdbe7"/><path d="M36.31,52.65c.73-.39.64-1.27,1-1.88s.58-.54,1-.29.93.45,1.28,0a1.28,1.28,0,0,0,.16-1.52,3.68,3.68,0,0,1,.36-3.75,14.72,14.72,0,0,1,1.28,5.36c.08,1-1.05,1.53-1.64,2.23s-1.4,1-1.48,2c0,.22-.32.32-.64.35.36.19.64-.08.92,0,.08,0,.2.13.24.07s-.08-.13-.12-.21a.71.71,0,0,1,.1-1c.61-.56,1.26-1.07,1.84-1.68.3-.32.74-.16,1,.2.23.18-.4.75.46.75.49,0,.08.81.13,1.25a1.06,1.06,0,0,1-.5.76c-.18.08-.48.1-.45.31.25,1.37-1,2.18-1.24,3.33a2.9,2.9,0,0,1-.94,1.19,5.21,5.21,0,0,0-2.25,3.05.42.42,0,0,1-.31.09,1.24,1.24,0,0,1-.41-.41c-.62-.76-1-.68-1.6.14s-.12,1.64-.49,2.38a.91.91,0,0,1-.38.32,5.05,5.05,0,0,0-1.46.5,1.89,1.89,0,0,1-1.93.36c-.65-.12-1.34.13-2-.21a4.28,4.28,0,0,0,1.45-1.62c.43-.71.12-1-.41-1.28l.45-.5a5.28,5.28,0,0,0,3.62-1.37,1,1,0,0,0,.47-.78c.12-.13.06-.39.14-.43,1.38-.63,1.13-2.07,1.57-3.16a2.71,2.71,0,0,0,.08-2.62,1.08,1.08,0,0,1,.6-1.73C36.3,52.8,36.31,52.73,36.31,52.65Z" transform="translate(0 0)" style="fill:#86836f"/><path d="M26.21,64.9c-.19.07-.37.16-.56.22-.39.13-.82.31-.76.78s.59.45,1,.44a1.61,1.61,0,0,1,1.46.6c1,1.18,2.58.83,3.85,1.31.3.11.74,0,.91.22.94,1.07,2.16.75,3.32.75A13.2,13.2,0,0,1,40,70.45a1.47,1.47,0,0,1,.82,1.45,1.39,1.39,0,0,0,.12.89c.3.46,0,.67-.43.73a43.58,43.58,0,0,1-6.76.22,1.46,1.46,0,0,1-1.06-.45c-.37-.52-.76-.28-1.16-.22.07-.74.61-.78,1.15-.71a5.66,5.66,0,0,0,4-1.21c-1-.8-2.27-.57-3.38-.65a4.48,4.48,0,0,0-2.68.11c-.45.24-.76-.24-.82-.75a.84.84,0,0,0-.81-.75c-.52,0-.3.44-.4.7-.25.71-.6.82-1.05.15-.13-.2-.25-.5-.5-.45-1.66.34-2.11-1.42-3.38-1.73.25-.55.56-.21.8-.27a.57.57,0,0,0,.49-.45.36.36,0,0,0-.27-.46.82.82,0,0,1-.59-1.13c.16-.53.41-1.06,1.12-1,0,0,.09,0,.12,0,1,.46.11-1.64,1-.83.61.58,1,.33,1.56.34.18.5-.28.54-.53.73S26.64,65.1,26.21,64.9Z" transform="translate(0 0)" style="fill:#cbd5df"/><path d="M27.18,64.43l.67-.5,1.52-.46a1,1,0,0,1,1.23.39c.28.36-.29.54-.45.82a2.19,2.19,0,0,0-.34.61c-.13.88-.67,1.15-1.48,1.08l-.44-.19C27.45,65.68,26.74,65.28,27.18,64.43Z" transform="translate(0 0)" style="fill:#6e6f67"/><path d="M51.92,73.79c-.32-.13-.64-.42-1,0l-1-.74c.78-.51,1.37.45,2,0,.26-.17.66-.15.76-.5s-.35-.44-.6-.58a1.6,1.6,0,0,1-1-1.7c.06-.53.06-1.06-.77-1.2-.47-.08-.91-.68-.06-1.07a.63.63,0,0,0,.31-.9c-.18-.43-.43-.05-.67,0-.53.17-.67,0-.43-.52a4.53,4.53,0,0,0,.45-2c.09-.14.23-.27.38-.25a2.88,2.88,0,0,0,2.35-.81c.68.24.72.85.83,1.44a28.25,28.25,0,0,0,1.76,4.81,4.62,4.62,0,0,1-2.25,4.24A.89.89,0,0,1,51.92,73.79Z" transform="translate(0 0)" style="fill:#98a0a1"/><path d="M48.8,69.71c-.57.07-1.19-.2-1.71.25-.07.05-.21,0-.31,0,0-1.58-2-.84-2.41-2-.13-.34-.65-.54-.86-.94a4.26,4.26,0,0,1,.59-.74c-1.13-1-2.49-.79-3.8-.84-.58,0-1.29.23-1.65-.54a1.21,1.21,0,0,1,1.22-.59,24.47,24.47,0,0,1,3.83,0,5.17,5.17,0,0,0,3-.71c-.18-.27-.47-.38-.58-.64-.38-.51-1.18-.71-1.08-1.57,0-.19-.3-.21-.47-.3-.83-.46-.56-.44-.5-1.38a8.32,8.32,0,0,0,.16-2,2.12,2.12,0,0,1,0-.71,1.51,1.51,0,0,1,.13-.33.68.68,0,0,1,.44-.27c.53.14.63.59.63,1a3.56,3.56,0,0,0,1.18,2.77.82.82,0,0,1,.35.6c0,.67.35,1,1,1.18s1,.72.66,1.47c-.52-.23-.77-.05-.36.38.68.71.16,1-.35,1.23a2.74,2.74,0,0,1-1.51.21c-.71-.15-1.1-.08-1.13.71s-.13,1.42,1,1.33c.36,0,.88.14.86.5C47,69.1,47.94,69.34,48.8,69.71Z" transform="translate(0 0)" style="fill:#adb8bf"/><path d="M48.55,63.46c-.1-.72-.29-1.3-1.23-1.24a.75.75,0,0,1-.71-.82c.11-.69-.31-1-.68-1.39a3,3,0,0,1-.84-2.48,1.26,1.26,0,0,0-.37-1.05c-.09-.66.35-.84.85-1s.79,0,.89.39c.19.69.83.91,1.23,1.38A3.82,3.82,0,0,0,49,58.77c.91.57.56,1.83,1.34,2.48a.69.69,0,0,1,0,.49,1.91,1.91,0,0,1-.42.51c-.32.29-.51.58-.25,1s.07.62-.41.42C49,63.68,48.73,63.73,48.55,63.46Z" transform="translate(0 0)" style="fill:#c7d5e1"/><path d="M49.28,63.71l.29-.15c-1.12-.65-.27-1.08.17-1.56a6,6,0,0,1,2.69,1.1.49.49,0,0,1,.23.59c-.52,1-.52,1-1.94,1H50C49.15,64.82,49.61,64,49.28,63.71Z" transform="translate(0 0)" style="fill:#aab4ba"/><path d="M69.22,77.15a14.05,14.05,0,0,1-5.33.21c-1.25-.17-2.53-.15-3.8-.21a2.36,2.36,0,0,1-1-2c.13-.69-.57-1.13-.57-1.79a9.52,9.52,0,0,0-1.09-2.07c-.18-.29-.6-.63,0-1,1.56.23,1.62.19,1.82-1.54a1.45,1.45,0,0,1,.47-.79,1.88,1.88,0,0,0,.55-1.52c-.05-.44-.05-.79.35-1s.7.19,1,.35.4.58,1,.54.5.56.24,1a.89.89,0,0,1-.43.22c-.48.11-.63.49-.77.89a1.49,1.49,0,0,1-.4.43c.57-.3.8-1,1.39-1.27a3.13,3.13,0,0,0,1.24-2.77c0-.33-.19-1.29.76-.63h0A1.7,1.7,0,0,1,64.92,66c-.62,1.75-.06,3.34.45,5a9.83,9.83,0,0,1,1.54,1.62c.29.32.59.66.31,1.16-.18.31.07.6.14.9a.48.48,0,0,0,.4.39c.26,0,.27-.21.36-.38a9.62,9.62,0,0,0,.81-1.79c.38-.14.52.15.68.39a1.91,1.91,0,0,1,.22.84C69.59,75.08,69.42,76.12,69.22,77.15Z" transform="translate(0 0)" style="fill:#7f7f74"/><path d="M77.63,74.72l-.22.08-1,.66c-1.31-.4-2.59.1-3.86.25-.86.11-1.31,1.2-2.12,1.63a1.17,1.17,0,0,1-1-.2,1.35,1.35,0,0,1,.18-1.34,4.83,4.83,0,0,1,2.09-2.51,2.49,2.49,0,0,0,.92-.93,3.44,3.44,0,0,1,2.48-2c.59-.1.75-.65.85-1.17.38-.4.67-1.21,1.3-.91s0,1,0,1.57,0,.79-.11,1.18c-.11.75-.21,1.46.87,1.52a.69.69,0,0,1,.48.33C77.73,73.21,78.47,74.36,77.63,74.72Z" transform="translate(0 0)" style="fill:#3d494a"/><path d="M70.44,77.34c.78-1,1.17-2.33,2.94-2.06.56.09,1.32-.33,2-.3.41,0,.8,0,1,.48.09,1.17-.58,1.5-1.62,1.53a4.61,4.61,0,0,0-1.73.35c-.84.4-.63-1.17-1.26-.66-.4.32-.55.94-1.25.68Z" transform="translate(0 0)" style="fill:#1d2c32"/><path d="M59.35,75a10.32,10.32,0,0,0,.74,2.15l-.26,0a.34.34,0,0,1-.45,0c-1.06-.18-2.31.44-3.14-.74l-.7-.08a.75.75,0,0,1-.77-.15c.15-.83,1-.68,1.48-1,.34-.18.73-.29,1-.5A1.38,1.38,0,0,1,59.35,75Z" transform="translate(0 0)" style="fill:#414e51"/><path d="M69.92,75.94l-.45,1.2h-.25l-.42-.23c.78-.81,0-2.1.9-2.88.6,0,.43.47.4.75S70,75.56,69.92,75.94Z" transform="translate(0 0)" style="fill:#787769"/><path d="M59.38,77.19h.45l.89.78c-.71.14-1.42.37-1.9-.07C58.51,77.62,59.19,77.45,59.38,77.19Z" transform="translate(0 0)" style="fill:#a9b8c0"/><path d="M81,75.48a.53.53,0,0,1-.23-.49h0a2.63,2.63,0,0,1,1.44-.22C82.07,75.48,81.31,75.12,81,75.48Z" transform="translate(0 0)" style="fill:#677881"/><path d="M54.78,76.2l.76.17,0,.1a7,7,0,0,1-3.58-.28c-.31,0-.84-.09-.65-.43.34-.63.07-1.44.65-2a2.23,2.23,0,0,0,2.48-1.63c.23-.75.83-1.37.88-2.21l.17,0a2.5,2.5,0,0,1-.24,3.34c-.37.39-1.13.69-.4,1.45.15.16-.12.54-.31.73C54,75.93,54.63,76,54.78,76.2Z" transform="translate(0 0)" style="fill:#808a8e"/><path d="M51.92,76.19l3.58.28a10.26,10.26,0,0,1-3.62.16C51.39,76.64,51.94,76.35,51.92,76.19Z" transform="translate(0 0)" style="fill:#aab6c1"/><path d="M78.59,64.17c-.44-.46-.8-.85-.36-1.62.27-.45.1-1.15.13-1.74C78.85,61.9,78.47,63.06,78.59,64.17Z" transform="translate(0 0)" style="fill:#98927c"/><path d="M77.15,69.71c-.31-.07-.62-.2-.16-.47s.48-.46.17-.94a2.33,2.33,0,0,1-1,.92.84.84,0,0,1-1.18.39c-1.6-.61-1.92-.41-3,1-.72,1-1.23,2.26-2.58,2.67L69,72.83a.39.39,0,0,1-.32-.36.86.86,0,0,1,.53-.64c.54-.24,1-.4,1-1.24s1.54-2.34,2.48-2.39a8,8,0,0,1,2.13-.06,1.28,1.28,0,0,0,1.72-1.41,2.45,2.45,0,0,0-.34-1.25A2,2,0,0,1,75.76,64c.36-.62-.64-1.2-.06-1.82.4-.11.66.16,1,.36a5.8,5.8,0,0,1,1.08,3.1c0,.86.57,1.34.86,2a.7.7,0,0,0,.79.42c.47-.14.93-.38,1.28.15a1.48,1.48,0,0,1,.08,1.47l-.24.23-.21,0A.27.27,0,0,1,80,70c-.44-.7-.86-.35-1.28,0-.3.17-.35.51-.55.75C77,70.93,77,70.92,77.15,69.71Z" transform="translate(0 0)" style="fill:#6b6b5d"/><path d="M80,70l.26,0a5.1,5.1,0,0,0,3,2.85c.33.17.76.29.73.68s-.63.52-.85.46c-1.68-.48-3.17.41-4.76.56-.6-1-.6-1,1.09-1.79a6.34,6.34,0,0,1-1.35-2.06c.16-.26-.39-1,.5-.75a.74.74,0,0,1,.33,0c.19,0,.24.93.58.09C79.58,69.88,79.84,69.84,80,70Z" transform="translate(0 0)" style="fill:#7a868c"/><path d="M78.11,70.67c1,.33.83,1.83,2,2a.86.86,0,0,1-.87.63c-1.09-.09-1.17.43-.89,1.26a.75.75,0,0,1-.74.2c.07-.18.51-.29.21-.54-1.06-.9-.23-1,.48-1.19-.43-.52-1.69,0-1.54-1.09a5.46,5.46,0,0,1,.37-2.19c.14,0,.38.06.28.23C76.93,70.89,77.7,70.6,78.11,70.67Z" transform="translate(0 0)" style="fill:#596365"/><path d="M80.75,75l-.21.11c-.35.27-.72.62-1.13.15-.17-.19,0-.51.22-.6.42-.15.94-.43,1.12.33Z" transform="translate(0 0)" style="fill:#b4beca"/><path d="M27.18,64.43c-.16.74,1,.95.71,1.75-.86.31-1.62-.33-2.74,0,.45-.66,1.26-.6,1.06-1.29C26.53,64.74,26.75,64.38,27.18,64.43Z" transform="translate(0 0)" style="fill:#8d8f83"/><path d="M30.3,66.58c.43-.26,1.29.4,1.35-.74,0-.33.33.21.54.28.4.21.94,0,1.24.5-.53.38-1.13.12-1.7.21C31.26,66.74,30.72,67,30.3,66.58Z" transform="translate(0 0)" style="fill:#a2abae"/><path d="M38.7,64.9c1,.5,2,.13,3,.24.65.06,1.39-.21,1.84.54,0,.06.14.07.2.12.27.26.82-.91.9.14.06.76-.6.93-1.18,1.12H36.94a3.15,3.15,0,0,1-2.09-.46c.8-.86,2-.16,2.84-.81-.41-.14-1,0-1.4-.35a1.6,1.6,0,0,1,.27-2.21l.22,0a.84.84,0,0,1,.32.6,3.11,3.11,0,0,1,0,.32C37.39,64.94,38.36,64.28,38.7,64.9Z" transform="translate(0 0)" style="fill:#a2abae"/><path d="M36.53,65.39a3.43,3.43,0,0,1,1.76.22c.19.08.38.16.35.41a.36.36,0,0,1-.44.3,22.05,22.05,0,0,0-3.35.28l-1.2,0a.88.88,0,0,1,0-.95l.24-.24A2.08,2.08,0,0,0,36.53,65.39Z" transform="translate(0 0)" style="fill:#8c908d"/><path d="M33.66,65.62a.72.72,0,0,1,0,.95.54.54,0,0,0-.22.05c-.37-.28-1.13.42-1.24-.5C32.6,65.73,32.93,65.1,33.66,65.62Z" transform="translate(0 0)" style="fill:#786a54"/><path d="M80.74,69.7c0-1,.19-1.81-1.46-1.34-1,.29-1.25-1.21-1.62-2-.53-1.15-.34-2.56-1.23-3.6-.19-.33-.57-.6-.36-1.07l.12-.13a6.83,6.83,0,0,1,1.86,4.6,1.59,1.59,0,0,0,1.42,1.6c.48,0,1.09-.47,1.38.17A1.65,1.65,0,0,1,80.74,69.7Z" transform="translate(0 0)" style="fill:#89836e"/><path d="M72.59,58.17c1.26.15,2.21,1,3.36,1.44a9.43,9.43,0,0,0,.24,1.92h0C74.57,61.63,73,59.48,72.59,58.17Z" transform="translate(0 0)" style="fill:#89836e"/><path d="M44.46,30.78c-.69.21-.81-.69-1.38-.71-.5.21-.92.49-.81,1.14.28.86-.46,1.45-.86,1.81a3.88,3.88,0,0,0-1.29,2.21c-.06.25-.3.45-.47.69-.39-.29-.09-.52,0-.74.14-.45.36-.86,0-1.33-.52-.66-.77.36-1.34.1a4.06,4.06,0,0,0,1.42-2.57c-.38-.08-.48.38-.8.43-1.2-.87-1.22-.87-1.76-.48,0-.95,1.41-1,1.4-2.36-.55.85-1.05,1.24-1.78,1,.41-.9,1.78-1.13,1.72-2.41-.52.13-.72.58-1,.92s-.56.49-1,.26c-.14-.07-.32-.17-.21-.34a1.22,1.22,0,0,1,.71-.61c.19,0,.4,0,.57-.07s.37-.22.26-.46a.28.28,0,0,0-.41-.09c-1,.59-1.27-.25-1.55-.88-.35-.83.37-1,.88-1.25.24-.14.55-.28.66-.5.72-1.39,2-1.38,3.35-1.28a2.25,2.25,0,0,0-.19.55c0,1.2-.67,1.52-1.76,1.24-.21-.06-.51-.18-.59.17s.29.26.46.35a3.71,3.71,0,0,0,2.32.11,3.84,3.84,0,0,1,2.27.33,8.19,8.19,0,0,0,.85,0c.27,0,.61.09.61.43s-.33.3-.56.33-.6.38-.87.41a8.65,8.65,0,0,1,1.74-.7c.4-.19.81-.14.75.49a5.37,5.37,0,0,0-1.64.86c.54-.75,1.55-.47,2.42-.7.63.3.79.71.31,1.28a11.66,11.66,0,0,0-1.28,1.15C45.16,29.87,44.86,30.37,44.46,30.78Z" transform="translate(0 0)" style="fill:#948e79"/><path d="M36.3,52.88a1.17,1.17,0,0,0-.3,1.7c1.12,1.2-.07,2.19-.19,3.26,0,.22-.26.4-.1.78A1,1,0,0,1,35,60a2.1,2.1,0,0,0-1.12.79,11.49,11.49,0,0,0-.41-1.48c-.27-.61-.52-1.08.46-1.26.48-.1.4-.51.1-.83A1.2,1.2,0,0,1,34,55.54c.41-.56.22-1.19,0-2.15.76.91,1.16.86,1.39,0C35.46,53,35.87,52.86,36.3,52.88Z" transform="translate(0 0)" style="fill:#97917a"/><path d="M48.56,28.4a1.34,1.34,0,0,1,0,.2c-.35.37-.95.59-.82,1.28.21.29.61.26.85.5s.66-.05,1,.11a1.13,1.13,0,0,1,.11.93,1,1,0,0,1-.14.31c-.59.53-1.09,1.25-2.07.95-.33-.15-.61-.31-.6-.76s-.28-.18-.46-.13c-.5.54-1.24.82-1.51,1.58a.56.56,0,0,1-.39.27c-1,.07-.78,1.44-1.72,1.62-.09-.49.7-.61.41-1.15-.61,0-.54.85-1.32.92.33-.88,1.19-1.3,1.42-2.09a7.75,7.75,0,0,0,1.92-1.69v-.46c.11-.24.36-.34.51-.53s.59-.39.13-.72a.57.57,0,0,1,0-.46c.33-.38.83-.55,1.18-.91s.77,0,1.15,0A.51.51,0,0,1,48.56,28.4Z" transform="translate(0 0)" style="fill:#85806c"/><path d="M48.56,36.56c-.09.18-.26.43-.43.33-.85-.52-1.39.07-2.12.76.26-1.25,1.22-1.71,1.61-2.53.19,0,.39.13.52-.11a.4.4,0,0,1-.18-.1l-.37,0c-.44-.33-.75-.83-1.32-1,0-1,.41-1.38,1.48-1.22A1.12,1.12,0,0,0,49,32.29a2.53,2.53,0,0,1,1.66-.56,1.3,1.3,0,0,1,.34,0,2.34,2.34,0,0,0,1.41,0,1.8,1.8,0,0,1,1.29.07c.29.15.6.32.49.71s-.42.33-.71.29c-.75-.11-1.5.12-2.26,0a1.2,1.2,0,0,0-1.18.38c.41-.36,1.13-.62,1.34-.27.37.62-.52.69-.83,1-.05.06-.12.1-.17.16l-.24.23A3.51,3.51,0,0,0,48.56,36.56Z" transform="translate(0 0)" style="fill:#8e8975"/><path d="M44,26.19c-.29,0-.58,0-.78-.23a9.65,9.65,0,0,1,2-1.26c-.31-.41-.76.14-1-.17.16-1,1.31.19,1.51-.71.45,0,.52-1,1.18-.49,0,1.05.47,1.05,1.44,1.12a2.16,2.16,0,0,1,2.23,1.9c0,.11-.17.23-.26.35s-.51,0-.78.13c-1.38.56-1.7.47-2.33-.86-.26-.53-.53-.62-1-.42A14.13,14.13,0,0,1,44,26.19Z" transform="translate(0 0)" style="fill:#877d66"/><path d="M49.28,39.43l-.68.39c.59-1,.43-2.2,1.13-3,.39-.91,1.24-1.5,1.65-2.4a4.42,4.42,0,0,1,1.68-.9c.4-.1.87-.17,1.07.27s-.21.77-.63,1a2.19,2.19,0,0,1-.34.1.82.82,0,0,1-.35,0c-.87-.16-.8.74-1.38,1.18.59-.36.45-1.32,1.31-1a2.51,2.51,0,0,1-1.06,2.3,2.7,2.7,0,0,0-1.5,1.45c-.15.41-.58.53-.9.75Z" transform="translate(0 0)" style="fill:#958e7b"/><path d="M46.27,33.88a1.6,1.6,0,0,0,1.23-.34c-.18.5-.34.94.09,1.32-.94.44-1.47,1.34-2.22,2-.23-.43.35-.55.2-1l-.71.49-.13-.09.91-1.44c-.15-.39.1-.64.32-.9A.39.39,0,0,1,46.27,33.88Z" transform="translate(0 0)" style="fill:#6d6957"/><path d="M46.16,33.89c0,.44-.38.65-.52,1a.91.91,0,0,0-.23,0c-.5.28-1-.12-1.53,0-.12-.59.44-.85.6-1.3l.23-.22c.14-.32.3-.61.72-.53.25.18.19.54.44.72A1,1,0,0,1,46.16,33.89Z" transform="translate(0 0)" style="fill:#868170"/><path d="M50.77,35.11l-.8-.26a.55.55,0,0,1,0-.72l0,0a21,21,0,0,1,2.47-1.34c.32-.14.76-.22.89.23s-.27.51-.57.61a7.24,7.24,0,0,0-1.31.79C51.13,34.55,51,34.91,50.77,35.11Z" transform="translate(0 0)" style="fill:#958e7b"/><path d="M43.8,31.39c-1,.69-1.25,2-2.21,2.64C42.24,33.07,42.57,31.85,43.8,31.39Z" transform="translate(0 0)" style="fill:#78715b"/><path d="M45.91,30.53c-.18.27-.46.25-.73.26h-.72a1.57,1.57,0,0,1,1-1.45c.11-.16.19-.36.45-.24v.56C46,30,45.63,30.24,45.91,30.53Z" transform="translate(0 0)" style="fill:#6f6d5b"/><path d="M50.77,35.11c-.17-.43,0-.65.43-.72.1.07.24.09.25.24a6.75,6.75,0,0,1-1.72,2.14l-.45.26c-.23.08-.27,0-.22-.22Z" transform="translate(0 0)" style="fill:#4c4831"/><path d="M47.37,37c-.93,1.64-.93,1.64-2.26,1.75C46,38.5,46.47,37.67,47.37,37Z" transform="translate(0 0)" style="fill:#837e68"/><path d="M49.06,36.81l.22.22-1.72,2A4,4,0,0,1,49.06,36.81Z" transform="translate(0 0)" style="fill:#776d58"/><path d="M45.19,31.25c-.17,1.09-1.12,1.31-1.92,1.69A7.56,7.56,0,0,1,45.19,31.25Z" transform="translate(0 0)" style="fill:#564a37"/><path d="M50,34.13c0,.24,0,.48,0,.72-.75.34-.87,1.19-1.41,1.71-.15,0-.4-.1-.29-.23C48.88,35.62,49.14,34.64,50,34.13Z" transform="translate(0 0)" style="fill:#4a3e30"/><path d="M37.27,32.72l-.25,0,1.41-1.83A3.2,3.2,0,0,1,37.27,32.72Z" transform="translate(0 0)" style="fill:#6d6d5b"/><path d="M41.07,34.66a1.84,1.84,0,0,1-.71,1.49A1.84,1.84,0,0,1,41.07,34.66Z" transform="translate(0 0)" style="fill:#78715b"/><path d="M48,34.91c.38.05.59-.33,1-.41-.49,1-.73,1.06-1.3.62Z" transform="translate(0 0)" style="fill:#463f28"/><path d="M42.27,31.21c-.23-.51.34-1.49.86-1.48,0,.12,0,.23-.05.34A3.7,3.7,0,0,0,42.27,31.21Z" transform="translate(0 0)" style="fill:#635d4d"/><path d="M42.49,25.13c-.57-.05-.93-.27-.93-.52s.42-.39.78-.53C42.38,24.41,42.11,24.74,42.49,25.13Z" transform="translate(0 0)" style="fill:#877d66"/><path d="M44,26.19a9.26,9.26,0,0,1,2.53-1.12c.38-.14.45.27.71.22-.09.74,1,.72.93,1.55,0,.33.54.11.78,0,.44-.14.8-.55,1.3-.17a2.09,2.09,0,0,1-.08.23c-.78,0-1.42.51-2.21.61-.54.07-.13.32.13.41a.3.3,0,0,1,0,.43c-.32,0-.64-.21-1,0-.12-.12-.35,0-.45-.21.48-.31.06-.63,0-.95-.27-.33-.75.05-1-.29,0-.49-.23-.39-.52-.28l-2.86,1a4.22,4.22,0,0,1,2.08-1.22c.14-.05.17-.14,0-.21A1,1,0,0,0,44,26.19Z" transform="translate(0 0)" style="fill:#5e5543"/><path d="M51.45,34.63l-.25-.24a7.45,7.45,0,0,1,2.06-1.29c-1.27-.17-2.09,1-3.27,1,.19-.67.94-.64,1.43-1.08-1-.26-1.52.6-2.39.75,1-1.22,2.26-1.52,5-1.25a1.66,1.66,0,0,0-1.73-.51c-.46.06-1,.48-1.42-.07a2.81,2.81,0,0,1,2.77-.63,1.55,1.55,0,0,1,.91.36l.7,0c.24,0,.31.05.23.27-.32.23-.81.1-1.06.55.29.3.56-.16.82,0s.61,0,.5.45h0a2.28,2.28,0,0,1-.39.24,2.08,2.08,0,0,0-.76,1.12,1.14,1.14,0,0,1-.25.44,3.35,3.35,0,0,1-1.14.51c-.35-.07-.61-.19-.28-.59s1.31-.21,1-.83c-.2-.44-1,0-1.5.19A6.25,6.25,0,0,0,51.45,34.63Z" transform="translate(0 0)" style="fill:#312c1f"/><path d="M52,29.37l1.14,0c-.05.21-.22.48.21.47l1.13,0c0,.37-.37.31-.46.51,0,.43.06.91-.44,1.15s-.66-.29-1-.12c-.53.24-1.32.4-1.47-.13A1.38,1.38,0,0,1,52,29.37Z" transform="translate(0 0)" style="fill:#403829"/><path d="M53.63,31.35c.29-.3-.6-1,.34-1.08.61.33,1.28-.23,1.9.16a1.26,1.26,0,0,1,.49.45c-.6.39-1.72-.5-1.78.84a1.08,1.08,0,0,1-.95-.2c-.06,0-.08-.08-.06-.11S53.61,31.35,53.63,31.35Z" transform="translate(0 0)" style="fill:#7c735d"/><path d="M55.77,32.94l-.5-.45,3-.74c-.47.71-1.26.56-1.76,1Z" transform="translate(0 0)" style="fill:#624f3c"/><path d="M55.51,32l-.23-.27c.62-.42,1.36,0,2-.33C56.83,32,56.17,32,55.51,32Z" transform="translate(0 0)" style="fill:#7a7263"/><path d="M53.63,31.35a.49.49,0,0,0,0,.17A8.8,8.8,0,0,0,50.9,32h-.12c-.33-.3-.66-.07-1,0s-.47-.18-.26-.51a1.49,1.49,0,0,1,0-.21c.18-.62,1-.69,1.17-1.27,0-.11.18-.15.23-.26a.6.6,0,0,1-.45-.08.58.58,0,0,1,0-.7c.14-.1.27-.2.18-.4.26-.21.52-.29.74.05a.58.58,0,0,1,.24.5l.27.26c-.66.37-.26,1.26-.89,1.75C52,31.36,52.86,30.77,53.63,31.35Z" transform="translate(0 0)" style="fill:#726552"/><path d="M50.7,28.56c.22.11.22.23,0,.35A3.66,3.66,0,0,1,47.34,30c-.82-.3,1-.78-.07-1.06.25-.75,1,.14,1.28-.37C49.27,28.81,50,29.21,50.7,28.56Z" transform="translate(0 0)" style="fill:#28261e"/><path d="M48.07,28.38c0-.14,0-.29,0-.43.41-.05.76-.45,1.27-.21-.24.29-.39.65-.83.66Z" transform="translate(0 0)" style="fill:#282519"/><path d="M51.68,29.11c-.21-.1-.22-.31-.24-.5h1.2C52.45,29.09,52,29,51.68,29.11Z" transform="translate(0 0)" style="fill:#3d3c29"/><path d="M75.94,64a2.83,2.83,0,0,0,.5,1.43c0,.87-.68.82-1.19.61A3.67,3.67,0,0,0,72,66.2a.8.8,0,0,1-.46.12c-.66-.14-.84.12-.81.77a1.09,1.09,0,0,1-.88,1.14c-1,.29-1.17,1.09-.43,1.8,1,1,1,1.15-.22,2.08l-.48.48a.39.39,0,0,1-.54-.44c.07-1.29-.84-2-1.57-2.82-.74.46-.09,2-1.49,1.82-.57-1.6-1.34-3.15-.55-5a5.87,5.87,0,0,0,.07-2c.26-.14.52-.36.45-.65-.35-1.33.62-2.57.21-3.91.61.59.4,1.43.73,2.09.17.33-.36.86.28,1s.35-.64.71-.77c.53.12,0,1.53,1.16.89.48-.25,1.3.23,1.43-.8.55.78,3,1.5,3.71,1.12s.59-1.1,0-1.34c-2.25-1-2.51-3.62-4.21-5a.59.59,0,0,1-.14-.43c0-.29.26-.23.46-.18.37.11.79-.24,1.13.16a.34.34,0,0,0,.32.07c.81-.41.82-.4,1.43.53a1.25,1.25,0,0,1,.2.79c-1.11,1.7-1.1,1.79.51,2.94a12.44,12.44,0,0,1,1.32,1.19A9.22,9.22,0,0,1,75.94,64Z" transform="translate(0 0)" style="fill:#898672"/><path d="M62.73,67.31c0-.34.52-1.09-.52-.73-.16-.46-.84-.25-1-.77-.06-.26-.28-.39-.54-.17s-.35.3-.25.5c.52,1,.06,1.66-.73,2.22-.16.12-.28.19-.13.53.32.7-.13,1.33-.65,1.8s-1,0-1.48-.26a3.08,3.08,0,0,0-1.62-1.5,3,3,0,0,1-.57-.9c-.36-.91-.08-1.32,1-1.45l1,1.44c.26.34.51.68.78,1,.26-.16.37-.45.66-.53,1.06-1.28.51-3,1.39-4.61-1.07.51-.64,1.53-1.38,1.93-.86-2.41.82-4.45.76-6.75.57.76.57,1,.08,2.73.54-.39.58-.39.58-.9a3.48,3.48,0,0,1,.29-1.51c.17-.36.31-.9.93-.33.44.41.35-.29.65-.45.25.59.58,1.23,1.27,1.31.44,0,0-.67.41-.82.4.1.2.56.49.83l.12-1.33c.42,1,.76,1.62.34,2.53s.29,2,.07,3.05c-.18,0-.41-.18-.46.14a5.89,5.89,0,0,0,0,.84c0,1.13-.2,2.16-1.43,2.62A.32.32,0,0,1,62.73,67.31Z" transform="translate(0 0)" style="fill:#898672"/><path d="M52.38,63.22A7.07,7.07,0,0,1,49.74,62l.48-.24c.29-.27.62-.18,1-.11-.32-.17-.71,0-.95-.36-.43-.24-1.07-.28-.78-1.1.2-.57-.45-.85-.67-1.3a.71.71,0,0,1,.09-.66c.27-.47.81-1-.24-1.22-.31-.08-.18-.56-.3-.84l0-.16c.2-.18.58-.49.63-.19.14.75.75.56,1.14.79s1.25.31,1.2,1.27c0,.62.67.51,1.13.54.23.57-.13.91-.54,1.15s-.75-.22-1.1-.57c.36,1.21.52,1.26,1.3.49a.94.94,0,0,1,.59-.36,10.43,10.43,0,0,1,2.13,2.64C54.23,63.64,53.9,63.83,52.38,63.22Z" transform="translate(0 0)" style="fill:#989f9c"/><path d="M41.58,52.64c-.81-.2-2.75,1.55-2.64,2.38a.26.26,0,0,1-.26.26,1.44,1.44,0,0,1-1.58,0c-.19-.11-.33-.27-.25-.48s.31-.18.5-.09c.4.19.93.28.82-.32-.16-.87.17-1.13.91-1.42,1-.38,1.07-1.7,2.08-2.14.08,0,0-.66-.14-1-.29-1.12-.16-2.33-.82-3.38-.2-.31-.05-.85-.06-1.29s0-.74.43-.89.53.24.73.46a11.46,11.46,0,0,1,2,3.08c-.22.2-.44.11-.66,0s-.54-.6-.93-.22-.16.67-.14,1c0,.86.68,1.52.76,2.54,0-1.36.93-.73,1.45-.94.46.5.15,1.11.23,1.67A3.21,3.21,0,0,1,41.58,52.64Z" transform="translate(0 0)" style="fill:#817b64"/><path d="M55.29,37.74c.13,1.19-.79,2-1,3.13h0a2.54,2.54,0,0,0-2.38,1.41.91.91,0,0,1-1,.51c-.1-.12-.17-.34-.36,0s-.14.66-.6.52h0a.31.31,0,0,1,0-.46c.34-2,2-3.35,2.42-5.31.13-.25.57.3.66-.36s.41-1.33,1.34-.91c.07,0,.12.13.13.07a1.93,1.93,0,0,0,0-.34,2.51,2.51,0,0,1,.39-1.46.64.64,0,0,1,.49-.18c.74.81-.09,1.34-.36,2V37c.14.69-.7.91-.72,1.45C54.54,38.17,54.62,37.6,55.29,37.74Z" transform="translate(0 0)" style="fill:#a19c84"/><path d="M52.38,63.22c.77-.09,1.89.44,1.86-1.08,0-.12.36-.25.55-.37.72,1.53.77,3.27,1.46,4.81-1,.32-1.11.89-.5,1.65A1.13,1.13,0,0,1,56,69c.07.55-.44.67-.71,1h0c-.23,0-.61,0-.61-.24,0-1.68-1.41-2.92-1.47-4.56a2,2,0,0,0-.54-1.46Z" transform="translate(0 0)" style="fill:#878d87"/><path d="M41.58,52.64a6,6,0,0,1,2.4-.73c.46.34,1.38.28,1.09,1.3,0,.14.14.81.7.42.09-.06.25-.15.28,0,.25,1.28,1.86,1.25,2.26,2.37h0c.1.66.13,1.28-.74,1.45-.45-.53-1.56-.5-1.38-1.6,0,0-.35-.09-.54-.14a.5.5,0,0,0-.46,0c-.7.28-1,.12-.77-.68a1.23,1.23,0,0,0-.25-1.33c-.29,0-.47-1.1-.86-.08a1.43,1.43,0,0,1-1.27,1,1.63,1.63,0,0,1,.07-1.09c-.43-.18-.7.2-1.17.2C41.12,53.27,41.65,53.1,41.58,52.64Z" transform="translate(0 0)" style="fill:#969a93"/><path d="M74.25,62c-.74-.88-1.93-1.23-2.57-2.23-.33-.5-.93-1,.15-1.45.48-.18-.14-.65.17-1l.58.33c0,.16,0,.32,0,.48.36,1,1.74,1.26,1.79,2.48.78-.07,1.19.61,1.81.89l.24,1.19-.73-.47C75.16,62.58,74.84,61.46,74.25,62Z" transform="translate(0 0)" style="fill:#807359"/><path d="M43.75,50.24l-.11.32c-1.33-.38-1.16.83-1.64,1.5.28-1.41-.78-2.42-.88-3.7,0-.54,0-1.06.53-1.35s.78.28,1.09.6a1.7,1.7,0,0,0,.53.23,1.31,1.31,0,0,0,.44.82c.29.34.49.48-.21.75C42.59,49.76,43.45,50,43.75,50.24Z" transform="translate(0 0)" style="fill:#746a4e"/><path d="M55.06,34.65c-.33,2.07-.33,2.07-1,2.51-.37-.37.42-.56.16-.91-1,.35-.86,1.5-1.41,2.16-.49-.22.39-.84-.36-.91h0c-.15-.37.14-.56.31-.8-.28.25-.46.62-.8.81l-.48.72c-.55.41-.48,1.44-1.44,1.45l-.24-.25A5.81,5.81,0,0,1,51.45,37c.82-.5.92-1.39,1.18-2.2a.13.13,0,0,1,0-.15s0-.06.07-.06l.28,0c-.08.35.12.44.41.44s.75-.13.92-.54l.13-.44a.38.38,0,0,1,.44,0A.75.75,0,0,1,55.06,34.65Z" transform="translate(0 0)" style="fill:#827c67"/><path d="M56.49,35.34c.32-.19.2-.7.65-.85.1.74.83.56,1.26.87-.35.28-.5.7.06.7,1,0,.93.55.88,1.56-.26-1.11-1-1-1.47-1-.73,0-.32,1-.76,1.34-.28-.18-.09-.48-.17-.71s0-.44,0-.65-.13-.11-.23-.08C56.33,36.2,56.53,35.74,56.49,35.34Z" transform="translate(0 0)" style="fill:#726954"/><path d="M52.66,59.13l-.41.58c-.26.34-.27,1-1,.75a1.64,1.64,0,0,1-1-1.5.64.64,0,0,1,.47-.62c.19-.07.29.08.37.21.18.3-.07,1,.53.85a1.07,1.07,0,0,0,.75-1C52.7,58.58,52.64,58.87,52.66,59.13Z" transform="translate(0 0)" style="fill:#b8bfc5"/><path d="M55.06,36.28c0-.64.69-1.19.23-1.89,0-.79,1.09-.5,1.18-1.19l1.24.56c-.7.29-1.42.54-1.64,1.35A1.93,1.93,0,0,1,55.06,36.28Z" transform="translate(0 0)" style="fill:#726954"/><path d="M53.36,42.31c-.42.26-.8.53-.65,1.14.12.44-.28.6-.57.88-.11-1.26-.66,0-1.16-.33a29.44,29.44,0,0,1,2.14-2.18c.24-.2.17.31.24.49Z" transform="translate(0 0)" style="fill:#a19c84"/><path d="M54.32,40.87c.29-.12.6-.34.82.06s-.14.39-.3.55a3.35,3.35,0,0,0-1.13,1.69c-.49-.23-.29-.58-.35-.86h0c.41-.42.93-.77,1-1.44Z" transform="translate(0 0)" style="fill:#a19c84"/><path d="M59.37,38.71c.26.84-.79,1.49-.36,2.37,0,0-.15.19-.23.19-.26,0-.33-.17-.35-.38-.11-.91-.11-1.77.94-2.18Z" transform="translate(0 0)" style="fill:#817a69"/><path d="M58.65,68.5c-.28.41-.19,1-.79,1.37-.22-.63-.44-1.24-.65-1.85C57.62,68.38,58.33,67.86,58.65,68.5Z" transform="translate(0 0)" style="fill:#878d87"/><path d="M59.36,38.46c-.66-.38-.67-.39-.15-.72.18-.1.33-.18.38-.39s0-.89.7-.5c.82.5-.55.51-.2.89C60.35,38.49,59.79,38.41,59.36,38.46Z" transform="translate(0 0)" style="fill:#a59d87"/><path d="M59.36,38.46c.19-.29.77-.19.73-.72.79,0,.73.87,1.19,1.22.08.24.17.47.26.71-.18-.07-.48-.09-.51-.2-.28-.9-1-.79-1.66-.76h0Z" transform="translate(0 0)" style="fill:#817a69"/><path d="M51.45,37c-.3,1-1.15,1.58-1.69,2.4h-.48C50,38.62,50.22,37.37,51.45,37Z" transform="translate(0 0)" style="fill:#a19c84"/><path d="M55.29,37.74c-.66.31-.84,1-1.23,1.87a3.17,3.17,0,0,1,1-2.57C55.27,37.22,55.5,37.41,55.29,37.74Z" transform="translate(0 0)" style="fill:#807c65"/><path d="M50,39.68c.59-.37.73-1.19,1.44-1.45a3.09,3.09,0,0,1-1,1.82C49.82,40.55,50.09,39.87,50,39.68Z" transform="translate(0 0)" style="fill:#a19c84"/><path d="M50,43.27c.45-.33.42-1,1-1.29.27.29-.13.55-.06.81-.45.32-.43,1-1,1.28C49.69,43.79,50.09,43.53,50,43.27Z" transform="translate(0 0)" style="fill:#807963"/><path d="M50,42.81v.46c-.81.37-.89,1.43-1.72,1.79A5.2,5.2,0,0,1,50,42.81Z" transform="translate(0 0)" style="fill:#807963"/><path d="M51.81,46.68c.54-.72.47-1.8,1.58-2.41A7.76,7.76,0,0,1,51.81,46.68Z" transform="translate(0 0)" style="fill:#726c55"/><path d="M56.72,36.53l.36-1a2.1,2.1,0,0,1-.14,1.75c-.28-.06-.64.4-.8,0S56.6,36.85,56.72,36.53Z" transform="translate(0 0)" style="fill:#a19c84"/><path d="M51.92,37.51a3.26,3.26,0,0,1,.56-.9c.16-.13-.1-.89.52-.41s0,.51-.17.73-.28.38-.42.57Z" transform="translate(0 0)" style="fill:#a19c84"/><path d="M54,46.62a1.12,1.12,0,0,1-.77,1.45C53.21,47.4,53.72,47.22,54,46.62Z" transform="translate(0 0)" style="fill:#74735d"/><path d="M62.25,38.47v.71c-.39,0-.42-.43-.72-.47-.07-.24-.37-.48,0-.72l.72.48Z" transform="translate(0 0)" style="fill:#8e8470"/><path d="M49.28,42.07c-.38-.64,0-.9.64-1.26a1.9,1.9,0,0,1-.64,1.26Z" transform="translate(0 0)" style="fill:#a19c84"/><path d="M78.12,56.33a.82.82,0,0,1,.56.41,4.37,4.37,0,0,1,.78,1.71.9.9,0,0,1-.53,1.16c-.51.08-.6-.52-.57-1,0-.63-.42-1.1-.53-1.69C77.78,56.65,77.72,56.39,78.12,56.33Z" transform="translate(0 0)" style="fill:#a7a79b"/><path d="M62.25,38.47a3.69,3.69,0,0,1,3.4,1.07c-1-.86-2.47-.07-3.4-1.07Z" transform="translate(0 0)" style="fill:#8e8470"/><path d="M56.47,33.2c0,.78-.87.72-1.18,1.19l-.23.26c-.24-.09-.27-.3-.27-.52-.12-.5.27-.79.47-1.17l.5,0c0,.21-.37.47-.1.62S56.14,33.21,56.47,33.2Z" transform="translate(0 0)" style="fill:#524832"/><path d="M29.57,20c-.41.25,0,1.22-.64,1-.85-.24-.29-1-.18-1.52a.71.71,0,0,1,.43-.57c.37.24.26.68.4,1Z" transform="translate(0 0)" style="fill:#1a1b13"/><path d="M36.53,65.39c-.67,1.24-1.74,1.24-2.63,0,.31-.72-.37-1.46.27-2.3.4-.52.65-1.15,1.32-1.17s.94.69,1.07,1.32S35.93,64.66,36.53,65.39Z" transform="translate(0 0)" style="fill:#726c56"/><path d="M42.06,54.56c.2-.46.84-.48,1-1,.46-.18,1,.41,1.41-.21a1.49,1.49,0,0,1,0,2.13c.43.19.87-.16,1.17.23a1.3,1.3,0,0,0-1,.75l-.24.24c-.81-.3-1.5-.69-1.36-1.79-1,.3-.7,1.19-.88,1.86,0,.27-.24.54-.21.8.12,1.08-.41,1.28-1.31,1-.26.14-.48.43-.83.24,0-.27,0-.67.13-.8A3.15,3.15,0,0,0,41,55.55c0-.32-.08-.81.59-.48C41.92,55.24,41.77,54.61,42.06,54.56Z" transform="translate(0 0)" style="fill:#a4abac"/><path d="M39.89,58.88l.71-.48c.38.26.65.7,1.24.49a.65.65,0,0,1,.81.36c.16.36-.08.57-.29.83-.69.84-1.7.54-2.55.77-.94.86-2.27,1.35-2.55,2.82a.35.35,0,0,1-.45.27l0-.73a3.08,3.08,0,0,1,1.41-2.71A11.85,11.85,0,0,0,39.89,58.88Z" transform="translate(0 0)" style="fill:#b4c2ca"/><path d="M38,56.58c-.31,0-.41-.21-.4-.46a.33.33,0,0,1,.4-.32c.26,0,.45.18.43.45S38.14,56.53,38,56.58Z" transform="translate(0 0)" style="fill:#adafa4"/><path d="M38.68,55.28l.26-.26c.25.18.58.31.55.69,0,.08-.16.2-.25.2C38.82,55.92,38.74,55.61,38.68,55.28Z" transform="translate(0 0)" style="fill:#adaba5"/><path d="M39.67,60.58a2.52,2.52,0,0,1,1.61-.21c.65.09.58-.71,1.15-.72.18,0,0-.45-.35-.51a1.15,1.15,0,0,0-1.27.64c-.06-.5.18-1-.21-1.38.6-1.67.54,1.16,1.08-.16a1.55,1.55,0,0,1,.37-1.49c0-.5.25-.69.63-.54.6.22,1.34.17,1.79.76-.18.66.73,1.47-.3,2,.08.13.24.26.23.39,0,.32.56.45.28.81s-.49-.35-.84-.1c.27,1,1.37.61,1.94,1.16-.26.37-1,.88.17,1a.44.44,0,0,1,.43.46c-.13.47-.34.81-.91.63a1.16,1.16,0,0,0-.93,0c-.43.22-.68.08-.74-.4-.1-.69-.63-1-1.07-1.52-.32.49.25.73.11,1.09-.9.88-1.7.32-2.44-.22C39.83,61.91,39.17,61.47,39.67,60.58Z" transform="translate(0 0)" style="fill:#d1e0ed"/><path d="M42.79,62.5c-.22-.16-.53-.28-.64-.49a.72.72,0,0,1,.3-1c.44-.24.61.07.71.36.22.7,1.59.79.9,2,.5-.48.87-.86,1.46-.3.41.4.6-.14.86-.32-.21.73,1.25.36.78,1.07-.22.35-.91.42-1.4.58a5.35,5.35,0,0,1-2.59.28,12.28,12.28,0,0,0-4.47.25c-.62-.28-1.71.67-1.91-.73,1.58-.76,3.31-.61,5-.74C42.46,63.38,42.81,63.2,42.79,62.5Z" transform="translate(0 0)" style="fill:#b4c2ca"/><path d="M44.47,57c-.61-.28-1.35,0-1.91-.55-.2-.19-.39.13-.51.33-.08-.69-.22-1.45.37-1.94s1.17-.19,1.71.18c-.17.53-.7.11-1,.49.67.18.81.89,1.3,1.24Z" transform="translate(0 0)" style="fill:#c7d5e1"/><path d="M47.59,57.47c.48-.36.43-1,.74-1.45.52.17.49,1.26,1.43.81.17-.08.13.38,0,.57-.31.51-.65,1-1,1.49C48.27,58.52,47.53,58.33,47.59,57.47Z" transform="translate(0 0)" style="fill:#abb0af"/><path d="M50.24,61.29h1.17c.22,0,.5-.08.61.2a.53.53,0,0,1-.12.4c-.18.22-.41.42-.7.2a1.59,1.59,0,0,0-1-.33C50.23,61.61,50.23,61.45,50.24,61.29Z" transform="translate(0 0)" style="fill:#aab4ba"/><path d="M69.46,73.31c0-.16,0-.42.08-.45,1.39-.57,1.79-2,2.59-3a2.16,2.16,0,0,1,2.92-.57c.51.38.76,0,1.13,0,.11,1.13-.54,1.53-1.54,1.62a1.45,1.45,0,0,0-1.18.85,4.76,4.76,0,0,1-2,2.21,3.63,3.63,0,0,0-1.52,2c-.37-.6.23-1.31-.22-1.9C69.43,73.86,69.48,73.57,69.46,73.31Z" transform="translate(0 0)" style="fill:#5a5e59"/><path d="M55.3,69.94c-.17-.62.43-.67.71-1,1-.17,1.34.15,1.44,1.45.31,1,1.21,1.79,1.44,2.88-.29.24-.53.1-.73-.1s-.49-.85-1-.46a1.69,1.69,0,0,0-.85,1.59c0,.39.26.76,0,1.13l-1.47.73h-1a3.52,3.52,0,0,1,1-1.59c-.85.12-1.37,0-.63-.73.2-.2.33-.48.55-.63C56.07,72.34,55.66,71.14,55.3,69.94Z" transform="translate(0 0)" style="fill:#737b79"/><path d="M65.14,71.15c1.19-.44.43-1.85,1.38-2.46.7.7,1.33,1.62,2,2.48.41.51-.65,1.08.19,1.42l.24.24c.43.89-.51,1.51-.49,2.38,0,.4-.87.35-1.31,0a2.23,2.23,0,0,1-.12-1.72c.13-.25-.06-.41-.18-.5C66.16,72.49,65.91,71.57,65.14,71.15Z" transform="translate(0 0)" style="fill:#949081"/><path d="M56.25,75.47a2.13,2.13,0,0,1,.16-2.54c.83-1,1.2-1,1.87,0a.72.72,0,0,0,.61.33.91.91,0,0,0,.4.93c.34.22.4.47.06.76-.07,0-.18.11-.21.09C58,74.11,57.2,75.28,56.25,75.47Z" transform="translate(0 0)" style="fill:#566564"/><path d="M62.73,67.31c0,.16,0,.32,0,.47-.46.42-.9.84-1.37,1.25-.15.13-.31.45-.55.16s.06-.4.3-.53a1.67,1.67,0,0,0,.41-.39,2.84,2.84,0,0,1,.74-.94Z" transform="translate(0 0)" style="fill:#676556"/><path d="M63.47,69.22c-.08.33.36.64,0,1-.76-.76-.76-.76-.29-1.71C63.55,68.65,63.69,68.87,63.47,69.22Z" transform="translate(0 0)" style="fill:#5a5c4c"/><path d="M63.47,69.22l-.25-.72c.15-.23.33-.56.58-.16S64.05,69.1,63.47,69.22Z" transform="translate(0 0)" style="fill:#898672"/><path d="M62.28,67.33a1.29,1.29,0,0,1-.74.94C61.39,67.64,61.68,67.36,62.28,67.33Z" transform="translate(0 0)" style="fill:#898672"/><path d="M69.22,72.11c.19-.31.39-.6.56-.92s.21-.68-.12-.68c-1.26,0-.85-1.05-1.06-1.65a.73.73,0,0,1,.81-1c1.47.18,1.06-.75.93-1.47,0-.28-.24-.55,0-.75s.35.2.53.31a.8.8,0,0,0,.9,0,3.19,3.19,0,0,1,3.64-.18c.37.23.77,0,1-.41a2.28,2.28,0,0,1,.15,2.35c-.42.74-.73,1.26-1.8.8a3.73,3.73,0,0,0-4.32,1.74c-.06.1-.16.24-.12.31C71,71.84,69.9,71.82,69.22,72.11Z" transform="translate(0 0)" style="fill:#787769"/><path d="M74.25,62c.07-.26-.27-.57,0-.76s.46.16.65.31.53.45.79.68a1.53,1.53,0,0,0,.52,1.15c.29.34,0,.48-.28.54A6.35,6.35,0,0,1,74.25,62Z" transform="translate(0 0)" style="fill:#64563e"/><path d="M80,70c-.48.44-1,.7-1.42,0,.16-.5.43-1,1-.84A.54.54,0,0,1,80,70Z" transform="translate(0 0)" style="fill:#5b5441"/><path d="M42.79,62.5c.34.32.56.66.25,1.14s-.63.08-.94.13a22.22,22.22,0,0,0-3.43.32,7.31,7.31,0,0,1-1.88.08.93.93,0,0,1,0-.23c.15-1.7,1.71-2.32,2.64-3.42,0,0,.14,0,.22.06A2.35,2.35,0,0,0,42.79,62.5Z" transform="translate(0 0)" style="fill:#c2d3e0"/><path d="M40.89,28.87a3.37,3.37,0,0,0-2.06.65c.21-1,1.13-.9,1.41-1.49-.52-.33-.85.34-1.32.23,1-1.3,1.86-1.4,2.94-.32A1,1,0,0,1,40.89,28.87Z" transform="translate(0 0)" style="fill:#a19c84"/><path d="M45.64,26.91c.39-.07.9-.56,1,.29l-3.45.87C44.16,28,44.61,26.72,45.64,26.91Z" transform="translate(0 0)" style="fill:#413827"/><path d="M46.65,28.15c.18,0,.38,0,.45.21l-1.19.73-.45.24C45.53,28.6,46.3,28.59,46.65,28.15Z" transform="translate(0 0)" style="fill:#2e2618"/><path d="M40.89,28.87l1-.93C42,28.52,41.71,28.82,40.89,28.87Z" transform="translate(0 0)" style="fill:#6a6454"/><path d="M49.52,31.48c0,.34.14.4.43.2s.64,0,.83.32c-.72.17-1.51.18-2,.85-.27.36-.46,0-.69,0-.81,0-1.63,0-1.8,1.06h-.11l-.54,0a1.45,1.45,0,0,1,.66-1.39,3.12,3.12,0,0,1,1-.13C48.34,32.76,48.74,31.68,49.52,31.48Z" transform="translate(0 0)" style="fill:#454335"/><path d="M47.34,30a18.77,18.77,0,0,0,3.37-1.12l-.25.63a2.54,2.54,0,0,1-1.9,1C48.18,30.32,47.6,30.55,47.34,30Z" transform="translate(0 0)" style="fill:#868170"/><path d="M47.33,32.39a1.17,1.17,0,0,1-1,.27c-.18-.06-.42,0-.52-.25s.22-.56.26-.87l.42-.22c.29-.17.62-.28.86,0s-.2.4-.3.61S47.26,32.24,47.33,32.39Z" transform="translate(0 0)" style="fill:#868170"/><path d="M48.56,30.54a8.63,8.63,0,0,1,1.9-1c.15.17.89-.26.49.48a1.86,1.86,0,0,1-1.43.57,2.52,2.52,0,0,1-.86.38C48.15,31,48.51,30.71,48.56,30.54Z" transform="translate(0 0)" style="fill:#2d1f15"/><path d="M49.52,30.59A1.72,1.72,0,0,1,51,30c0,.92-1,.83-1.41,1.25C49.25,31.05,49.57,30.82,49.52,30.59Z" transform="translate(0 0)" style="fill:#868170"/><path d="M46.1,31.54c.14.35-.07.62-.2.91a.52.52,0,0,1-.47.49l-.72.48c-.27-.47.11-.69.38-1Z" transform="translate(0 0)" style="fill:#514e41"/><path d="M45.91,30.53c-.2,0-.47.09-.55-.1-.17-.48.51-.41.56-.78.25-.16.48-.44.85-.19Z" transform="translate(0 0)" style="fill:#352d1e"/><path d="M52.66,34.62a1.52,1.52,0,0,0,0,.21c-.5.31-.66.89-1,1.34s-.57.22-.94-.07C51.7,36,51.58,34.58,52.66,34.62Z" transform="translate(0 0)" style="fill:#46432f"/><path d="M45.43,32.94l.47-.49.46.21-.74,1.25C45,33.69,45.64,33.24,45.43,32.94Z" transform="translate(0 0)" style="fill:#a19c84"/><path d="M55.26,33a1.75,1.75,0,0,1-.47,1.17H54.4C54.36,33.49,54.78,33.2,55.26,33Z" transform="translate(0 0)" style="fill:#a19c84"/><path d="M54.27,34.56c0,.72-.37.77-.92.54A1,1,0,0,1,54.27,34.56Z" transform="translate(0 0)" style="fill:#a19c84"/><path d="M62.42,60A3.17,3.17,0,0,1,62,64.46C63.28,63.06,62.33,61.53,62.42,60Z" transform="translate(0 0)" style="fill:#78705b"/><path d="M44.47,53.37c-.28,1.31-.87.58-1.41.21,0-.44,0-.95.46-1.09C44.23,52.26,43.8,53.44,44.47,53.37Z" transform="translate(0 0)" style="fill:#c0cacf"/></svg>